M48
;Layer_Color=9474304
;FILE_FORMAT=2:5
INCH,LZ
;TYPE=PLATED
T01F00S00C0.02400
T02F00S00C0.02800
T03F00S00C0.02953
T04F00S00C0.03000
T05F00S00C0.03150
T06F00S00C0.03346
T07F00S00C0.04016
T08F00S00C0.04094
T09F00S00C0.04724
T10F00S00C0.06496
T11F00S00C0.16142
%
T01
X0449Y03077
Y03143
T02
X03992Y03951
X0449Y0381988
X04607
X04674Y03518
T03
X0395Y03105
X0434
X0273Y0340815
Y03605
X0287Y03745
X0256343Y0372
X0236657
X0326Y03745
X03405
X03795
X0411Y03765
X0439
X0453
Y03375
X0439
X04435Y0325
X04045
X0411Y03375
X04965Y0367
X05355
X0529Y0385157
Y0404843
X0528Y04335
Y04725
T04
X0449Y0409
Y0419
Y0429
Y0439
Y0449
Y0459
X0509Y0449
Y0439
Y0429
Y0419
T05
X04245Y0338035
Y0364965
T06
X0493283Y0352
X0528717
T07
X0224461Y03905
X0234461
X0244461
X0254461
X0264461
X0274461
X0284461
X0294461
X0304461
X0314461
X0324461
X0334461
X0344461
X0354461
X0364461
X0374461
X0384461
X0394461
X0404461
Y04905
X0394461
X0384461
X0374461
X0364461
X0354461
X0344461
X0334461
X0324461
X0314461
X0304461
X0294461
X0284461
X0274461
X0264461
X0254461
X0244461
X0234461
X0224461
T08
X0465Y03395
X0475
T09
X0552Y03035
Y03135
Y03235
Y03335
Y03435
Y03535
Y03635
Y03735
X05515Y04045
Y04145
Y04245
Y04345
Y04445
Y04545
Y04645
Y04745
T10
X0242909Y03175
X02585
X0468909Y03155
X04845
X0507909Y0316
X05235
T11
X022322Y030561
X0557Y049
M30
