%TF.GenerationSoftware,Altium Limited,DefaultClient, ()*%
G04 Layer_Physical_Order=2*
G04 Layer_Color=16711680*
G04 Board_Origin=0|0*
%FSLAX26Y26*%
%MOIN*%
%TF.SameCoordinates,722044AA-65B8-4CCE-AC31-A48EA2AF6ED6*%
%TF.FilePolarity,Positive*%
%TF.FileFunction,Copper,L2,Bot,Signal*%
%TF.Part,Single*%
G01*
G75*
%TA.AperFunction,Conductor*%
%ADD16C,0.010000*%
%TA.AperFunction,ComponentPad*%
%ADD17C,0.060236*%
%ADD18R,0.060236X0.060236*%
%ADD19C,0.049528*%
%ADD20R,0.084646X0.084646*%
%ADD21C,0.084646*%
%ADD22R,0.044000X0.044000*%
%ADD23C,0.044000*%
%ADD24C,0.045276*%
%ADD25C,0.060000*%
%ADD26C,0.053150*%
%ADD27R,0.070866X0.070866*%
%ADD28C,0.070866*%
%ADD29C,0.051181*%
%ADD30R,0.061417X0.061417*%
%ADD31C,0.061417*%
%TA.AperFunction,ViaPad*%
%ADD32C,0.177165*%
%ADD33C,0.050000*%
G36*
X5634169Y4996157D02*
X5652368Y4988619D01*
X5668746Y4977675D01*
X5682675Y4963746D01*
X5693619Y4947368D01*
X5701157Y4929169D01*
X5705000Y4909849D01*
Y4900000D01*
Y3040000D01*
Y3030151D01*
X5701157Y3010831D01*
X5693619Y2992632D01*
X5682675Y2976254D01*
X5668746Y2962325D01*
X5652368Y2951381D01*
X5634169Y2943843D01*
X5614849Y2940000D01*
X2205151D01*
X2185831Y2943843D01*
X2167632Y2951381D01*
X2151254Y2962325D01*
X2137325Y2976254D01*
X2126381Y2992632D01*
X2118843Y3010831D01*
X2115000Y3030151D01*
Y3040000D01*
Y4900000D01*
Y4909849D01*
X2118843Y4929169D01*
X2126381Y4947368D01*
X2137325Y4963746D01*
X2151254Y4977675D01*
X2167632Y4988619D01*
X2185831Y4996157D01*
X2205151Y5000000D01*
X5614849D01*
X5634169Y4996157D01*
D02*
G37*
%LPC*%
G36*
X2898606Y4966294D02*
X2690606D01*
X2684753Y4965130D01*
X2679792Y4961814D01*
X2660262Y4942285D01*
X2660091Y4942384D01*
X2649888Y4945118D01*
X2639324D01*
X2629121Y4942384D01*
X2619973Y4937102D01*
X2612503Y4929633D01*
X2607222Y4920485D01*
X2604488Y4910282D01*
Y4899718D01*
X2607222Y4889515D01*
X2612503Y4880367D01*
X2619973Y4872898D01*
X2629121Y4867616D01*
X2639324Y4864882D01*
X2649888D01*
X2660091Y4867616D01*
X2669239Y4872898D01*
X2676709Y4880367D01*
X2681990Y4889515D01*
X2684724Y4899718D01*
Y4910282D01*
X2681990Y4920485D01*
X2681891Y4920656D01*
X2696043Y4934808D01*
X2705724Y4933889D01*
X2710043Y4925371D01*
X2707222Y4920485D01*
X2704488Y4910282D01*
Y4899718D01*
X2707222Y4889515D01*
X2712503Y4880367D01*
X2719973Y4872898D01*
X2729121Y4867616D01*
X2739324Y4864882D01*
X2749888D01*
X2760091Y4867616D01*
X2769239Y4872898D01*
X2776709Y4880367D01*
X2781990Y4889515D01*
X2784724Y4899718D01*
Y4910282D01*
X2781990Y4920485D01*
X2778976Y4925706D01*
X2783970Y4935706D01*
X2805242D01*
X2810236Y4925706D01*
X2807222Y4920485D01*
X2804488Y4910282D01*
Y4899718D01*
X2807222Y4889515D01*
X2812503Y4880367D01*
X2819973Y4872898D01*
X2829121Y4867616D01*
X2839324Y4864882D01*
X2849888D01*
X2860091Y4867616D01*
X2860262Y4867715D01*
X2931792Y4796186D01*
X2936753Y4792870D01*
X2942606Y4791706D01*
X5446665D01*
X5473824Y4764547D01*
X5472663Y4762537D01*
X5469567Y4750981D01*
Y4739019D01*
X5472663Y4727463D01*
X5478645Y4717104D01*
X5487104Y4708645D01*
X5497463Y4702663D01*
X5507665Y4699930D01*
Y4690070D01*
X5497463Y4687337D01*
X5487104Y4681355D01*
X5478645Y4672896D01*
X5472663Y4662537D01*
X5469567Y4650981D01*
Y4639019D01*
X5472663Y4627463D01*
X5478645Y4617104D01*
X5487104Y4608645D01*
X5497463Y4602663D01*
X5507665Y4599930D01*
Y4590070D01*
X5497463Y4587337D01*
X5487104Y4581355D01*
X5478645Y4572896D01*
X5472663Y4562537D01*
X5469567Y4550981D01*
Y4539019D01*
X5472663Y4527463D01*
X5478645Y4517104D01*
X5487104Y4508645D01*
X5497463Y4502663D01*
X5507665Y4499930D01*
Y4490070D01*
X5497463Y4487337D01*
X5487104Y4481355D01*
X5478645Y4472896D01*
X5472663Y4462537D01*
X5469567Y4450981D01*
Y4439019D01*
X5472663Y4427463D01*
X5478645Y4417104D01*
X5487104Y4408645D01*
X5497463Y4402663D01*
X5507665Y4399930D01*
Y4390070D01*
X5497463Y4387337D01*
X5487104Y4381355D01*
X5478645Y4372896D01*
X5472663Y4362537D01*
X5472062Y4360294D01*
X5402000D01*
X5396147Y4359130D01*
X5391186Y4355814D01*
X5385665Y4350294D01*
X5311312D01*
X5307818Y4356346D01*
X5301346Y4362818D01*
X5293418Y4367395D01*
X5284577Y4369764D01*
X5275423D01*
X5266582Y4367395D01*
X5258654Y4362818D01*
X5252182Y4356346D01*
X5247605Y4348418D01*
X5245236Y4339577D01*
Y4330423D01*
X5247605Y4321582D01*
X5252182Y4313654D01*
X5258654Y4307182D01*
X5266582Y4302605D01*
X5275423Y4300236D01*
X5284577D01*
X5293418Y4302605D01*
X5301346Y4307182D01*
X5307818Y4313654D01*
X5311312Y4319706D01*
X5392000D01*
X5397853Y4320870D01*
X5402814Y4324186D01*
X5408335Y4329706D01*
X5472062D01*
X5472663Y4327463D01*
X5478645Y4317104D01*
X5487104Y4308645D01*
X5497463Y4302663D01*
X5507665Y4299930D01*
Y4290070D01*
X5497463Y4287337D01*
X5487104Y4281355D01*
X5478645Y4272896D01*
X5472663Y4262537D01*
X5469567Y4250981D01*
Y4239019D01*
X5472663Y4227463D01*
X5478645Y4217104D01*
X5487104Y4208645D01*
X5497463Y4202663D01*
X5507665Y4199930D01*
Y4190070D01*
X5497463Y4187337D01*
X5487104Y4181355D01*
X5478645Y4172896D01*
X5472663Y4162537D01*
X5469567Y4150981D01*
Y4139019D01*
X5472663Y4127463D01*
X5478645Y4117104D01*
X5487104Y4108645D01*
X5497463Y4102663D01*
X5505787Y4100433D01*
X5504470Y4090433D01*
X5469567D01*
Y3999567D01*
X5560433D01*
Y4090433D01*
X5525530D01*
X5524213Y4100433D01*
X5532537Y4102663D01*
X5542896Y4108645D01*
X5551355Y4117104D01*
X5557337Y4127463D01*
X5560433Y4139019D01*
Y4150981D01*
X5557337Y4162537D01*
X5551355Y4172896D01*
X5542896Y4181355D01*
X5532537Y4187337D01*
X5522335Y4190070D01*
Y4199930D01*
X5532537Y4202663D01*
X5542896Y4208645D01*
X5551355Y4217104D01*
X5557337Y4227463D01*
X5560433Y4239019D01*
Y4250981D01*
X5557337Y4262537D01*
X5551355Y4272896D01*
X5542896Y4281355D01*
X5532537Y4287337D01*
X5522335Y4290070D01*
Y4299930D01*
X5532537Y4302663D01*
X5542896Y4308645D01*
X5551355Y4317104D01*
X5557337Y4327463D01*
X5560433Y4339019D01*
Y4350981D01*
X5557337Y4362537D01*
X5551355Y4372896D01*
X5542896Y4381355D01*
X5532537Y4387337D01*
X5522335Y4390070D01*
Y4399930D01*
X5532537Y4402663D01*
X5542896Y4408645D01*
X5551355Y4417104D01*
X5557337Y4427463D01*
X5560433Y4439019D01*
Y4450981D01*
X5557337Y4462537D01*
X5551355Y4472896D01*
X5542896Y4481355D01*
X5532537Y4487337D01*
X5522335Y4490070D01*
Y4499930D01*
X5532537Y4502663D01*
X5542896Y4508645D01*
X5551355Y4517104D01*
X5557337Y4527463D01*
X5560433Y4539019D01*
Y4550981D01*
X5557337Y4562537D01*
X5551355Y4572896D01*
X5542896Y4581355D01*
X5532537Y4587337D01*
X5522335Y4590070D01*
Y4599930D01*
X5532537Y4602663D01*
X5542896Y4608645D01*
X5551355Y4617104D01*
X5557337Y4627463D01*
X5560433Y4639019D01*
Y4650981D01*
X5557337Y4662537D01*
X5551355Y4672896D01*
X5542896Y4681355D01*
X5532537Y4687337D01*
X5522335Y4690070D01*
Y4699930D01*
X5532537Y4702663D01*
X5542896Y4708645D01*
X5551355Y4717104D01*
X5557337Y4727463D01*
X5560433Y4739019D01*
Y4750981D01*
X5557337Y4762537D01*
X5551355Y4772896D01*
X5542896Y4781355D01*
X5532537Y4787337D01*
X5520981Y4790433D01*
X5509019D01*
X5497463Y4787337D01*
X5495453Y4786176D01*
X5463814Y4817814D01*
X5458853Y4821130D01*
X5453000Y4822294D01*
X2948941D01*
X2881891Y4889344D01*
X2881990Y4889515D01*
X2884724Y4899718D01*
Y4910282D01*
X2881990Y4920485D01*
X2879169Y4925371D01*
X2883488Y4933889D01*
X2893169Y4934808D01*
X2907321Y4920656D01*
X2907222Y4920485D01*
X2904488Y4910282D01*
Y4899718D01*
X2907222Y4889515D01*
X2912503Y4880367D01*
X2919973Y4872898D01*
X2929121Y4867616D01*
X2939324Y4864882D01*
X2949888D01*
X2960091Y4867616D01*
X2969239Y4872898D01*
X2976709Y4880367D01*
X2981990Y4889515D01*
X2982041Y4889706D01*
X3007171D01*
X3007222Y4889515D01*
X3012503Y4880367D01*
X3019973Y4872898D01*
X3029121Y4867616D01*
X3039324Y4864882D01*
X3049888D01*
X3060091Y4867616D01*
X3069239Y4872898D01*
X3076709Y4880367D01*
X3081990Y4889515D01*
X3082041Y4889706D01*
X3107171D01*
X3107222Y4889515D01*
X3112503Y4880367D01*
X3119973Y4872898D01*
X3129121Y4867616D01*
X3139324Y4864882D01*
X3149888D01*
X3160091Y4867616D01*
X3169239Y4872898D01*
X3176709Y4880367D01*
X3181990Y4889515D01*
X3182041Y4889706D01*
X3207171D01*
X3207222Y4889515D01*
X3212503Y4880367D01*
X3219973Y4872898D01*
X3229121Y4867616D01*
X3239324Y4864882D01*
X3249888D01*
X3260091Y4867616D01*
X3269239Y4872898D01*
X3276709Y4880367D01*
X3281990Y4889515D01*
X3282041Y4889706D01*
X3307171D01*
X3307222Y4889515D01*
X3312503Y4880367D01*
X3319973Y4872898D01*
X3329121Y4867616D01*
X3339324Y4864882D01*
X3349888D01*
X3360091Y4867616D01*
X3369239Y4872898D01*
X3376709Y4880367D01*
X3381990Y4889515D01*
X3382041Y4889706D01*
X3407171D01*
X3407222Y4889515D01*
X3412503Y4880367D01*
X3419973Y4872898D01*
X3429121Y4867616D01*
X3439324Y4864882D01*
X3449888D01*
X3460091Y4867616D01*
X3469239Y4872898D01*
X3476709Y4880367D01*
X3481990Y4889515D01*
X3482041Y4889706D01*
X3507171D01*
X3507222Y4889515D01*
X3512503Y4880367D01*
X3519973Y4872898D01*
X3529121Y4867616D01*
X3539324Y4864882D01*
X3549888D01*
X3560091Y4867616D01*
X3560262Y4867715D01*
X3579792Y4848186D01*
X3584753Y4844870D01*
X3590606Y4843706D01*
X3698606D01*
X3704459Y4844870D01*
X3709420Y4848186D01*
X3728950Y4867715D01*
X3729121Y4867616D01*
X3739324Y4864882D01*
X3749888D01*
X3760091Y4867616D01*
X3769239Y4872898D01*
X3776709Y4880367D01*
X3781990Y4889515D01*
X3782041Y4889706D01*
X3807171D01*
X3807222Y4889515D01*
X3812503Y4880367D01*
X3819973Y4872898D01*
X3829121Y4867616D01*
X3839324Y4864882D01*
X3849888D01*
X3860091Y4867616D01*
X3869239Y4872898D01*
X3876709Y4880367D01*
X3881990Y4889515D01*
X3884724Y4899718D01*
Y4910282D01*
X3881990Y4920485D01*
X3876709Y4929633D01*
X3869239Y4937102D01*
X3860091Y4942384D01*
X3849888Y4945118D01*
X3839324D01*
X3829121Y4942384D01*
X3819973Y4937102D01*
X3812503Y4929633D01*
X3807222Y4920485D01*
X3807171Y4920294D01*
X3782041D01*
X3781990Y4920485D01*
X3776709Y4929633D01*
X3769239Y4937102D01*
X3760091Y4942384D01*
X3749888Y4945118D01*
X3739324D01*
X3729121Y4942384D01*
X3719973Y4937102D01*
X3712503Y4929633D01*
X3707222Y4920485D01*
X3704488Y4910282D01*
Y4899718D01*
X3707222Y4889515D01*
X3707321Y4889344D01*
X3693169Y4875192D01*
X3683488Y4876111D01*
X3679169Y4884629D01*
X3681990Y4889515D01*
X3684724Y4899718D01*
Y4910282D01*
X3681990Y4920485D01*
X3676709Y4929633D01*
X3669239Y4937102D01*
X3660091Y4942384D01*
X3649888Y4945118D01*
X3639324D01*
X3629121Y4942384D01*
X3619973Y4937102D01*
X3612503Y4929633D01*
X3607222Y4920485D01*
X3604488Y4910282D01*
Y4899718D01*
X3607222Y4889515D01*
X3610043Y4884629D01*
X3605724Y4876111D01*
X3596043Y4875192D01*
X3581891Y4889344D01*
X3581990Y4889515D01*
X3584724Y4899718D01*
Y4910282D01*
X3581990Y4920485D01*
X3576709Y4929633D01*
X3569239Y4937102D01*
X3560091Y4942384D01*
X3549888Y4945118D01*
X3539324D01*
X3529121Y4942384D01*
X3519973Y4937102D01*
X3512503Y4929633D01*
X3507222Y4920485D01*
X3507171Y4920294D01*
X3482041D01*
X3481990Y4920485D01*
X3476709Y4929633D01*
X3469239Y4937102D01*
X3460091Y4942384D01*
X3449888Y4945118D01*
X3439324D01*
X3429121Y4942384D01*
X3419973Y4937102D01*
X3412503Y4929633D01*
X3407222Y4920485D01*
X3407171Y4920294D01*
X3382041D01*
X3381990Y4920485D01*
X3376709Y4929633D01*
X3369239Y4937102D01*
X3360091Y4942384D01*
X3349888Y4945118D01*
X3339324D01*
X3329121Y4942384D01*
X3319973Y4937102D01*
X3312503Y4929633D01*
X3307222Y4920485D01*
X3307171Y4920294D01*
X3282041D01*
X3281990Y4920485D01*
X3276709Y4929633D01*
X3269239Y4937102D01*
X3260091Y4942384D01*
X3249888Y4945118D01*
X3239324D01*
X3229121Y4942384D01*
X3219973Y4937102D01*
X3212503Y4929633D01*
X3207222Y4920485D01*
X3207171Y4920294D01*
X3182041D01*
X3181990Y4920485D01*
X3176709Y4929633D01*
X3169239Y4937102D01*
X3160091Y4942384D01*
X3149888Y4945118D01*
X3139324D01*
X3129121Y4942384D01*
X3119973Y4937102D01*
X3112503Y4929633D01*
X3107222Y4920485D01*
X3107171Y4920294D01*
X3082041D01*
X3081990Y4920485D01*
X3076709Y4929633D01*
X3069239Y4937102D01*
X3060091Y4942384D01*
X3049888Y4945118D01*
X3039324D01*
X3029121Y4942384D01*
X3019973Y4937102D01*
X3012503Y4929633D01*
X3007222Y4920485D01*
X3007171Y4920294D01*
X2982041D01*
X2981990Y4920485D01*
X2976709Y4929633D01*
X2969239Y4937102D01*
X2960091Y4942384D01*
X2949888Y4945118D01*
X2939324D01*
X2929121Y4942384D01*
X2928950Y4942285D01*
X2909420Y4961814D01*
X2904459Y4965130D01*
X2898606Y4966294D01*
D02*
G37*
G36*
X2549888Y4945118D02*
X2539324D01*
X2529121Y4942384D01*
X2519973Y4937102D01*
X2512503Y4929633D01*
X2507222Y4920485D01*
X2507171Y4920294D01*
X2482041D01*
X2481990Y4920485D01*
X2476709Y4929633D01*
X2469239Y4937102D01*
X2460091Y4942384D01*
X2449888Y4945118D01*
X2439324D01*
X2429121Y4942384D01*
X2419973Y4937102D01*
X2412503Y4929633D01*
X2407222Y4920485D01*
X2404488Y4910282D01*
Y4899718D01*
X2407222Y4889515D01*
X2412503Y4880367D01*
X2419973Y4872898D01*
X2429121Y4867616D01*
X2439324Y4864882D01*
X2449888D01*
X2460091Y4867616D01*
X2469239Y4872898D01*
X2476709Y4880367D01*
X2481990Y4889515D01*
X2482041Y4889706D01*
X2507171D01*
X2507222Y4889515D01*
X2512503Y4880367D01*
X2519973Y4872898D01*
X2529121Y4867616D01*
X2539324Y4864882D01*
X2549888D01*
X2560091Y4867616D01*
X2569239Y4872898D01*
X2576709Y4880367D01*
X2581990Y4889515D01*
X2584724Y4899718D01*
Y4910282D01*
X2581990Y4920485D01*
X2576709Y4929633D01*
X2569239Y4937102D01*
X2560091Y4942384D01*
X2549888Y4945118D01*
D02*
G37*
G36*
X4084724D02*
X4004488D01*
Y4864882D01*
X4084724D01*
Y4945118D01*
D02*
G37*
G36*
X3949888D02*
X3939324D01*
X3929121Y4942384D01*
X3919973Y4937102D01*
X3912503Y4929633D01*
X3907222Y4920485D01*
X3904488Y4910282D01*
Y4899718D01*
X3907222Y4889515D01*
X3912503Y4880367D01*
X3919973Y4872898D01*
X3929121Y4867616D01*
X3939324Y4864882D01*
X3949888D01*
X3960091Y4867616D01*
X3969239Y4872898D01*
X3976709Y4880367D01*
X3981990Y4889515D01*
X3984724Y4899718D01*
Y4910282D01*
X3981990Y4920485D01*
X3976709Y4929633D01*
X3969239Y4937102D01*
X3960091Y4942384D01*
X3949888Y4945118D01*
D02*
G37*
G36*
X2349888D02*
X2339324D01*
X2329121Y4942384D01*
X2319973Y4937102D01*
X2312503Y4929633D01*
X2307222Y4920485D01*
X2304488Y4910282D01*
Y4899718D01*
X2307222Y4889515D01*
X2312503Y4880367D01*
X2319973Y4872898D01*
X2329121Y4867616D01*
X2339324Y4864882D01*
X2349888D01*
X2360091Y4867616D01*
X2369239Y4872898D01*
X2376709Y4880367D01*
X2381990Y4889515D01*
X2384724Y4899718D01*
Y4910282D01*
X2381990Y4920485D01*
X2376709Y4929633D01*
X2369239Y4937102D01*
X2360091Y4942384D01*
X2349888Y4945118D01*
D02*
G37*
G36*
X2249888D02*
X2239324D01*
X2229121Y4942384D01*
X2219973Y4937102D01*
X2212503Y4929633D01*
X2207222Y4920485D01*
X2204488Y4910282D01*
Y4899718D01*
X2207222Y4889515D01*
X2212503Y4880367D01*
X2219973Y4872898D01*
X2229121Y4867616D01*
X2239324Y4864882D01*
X2249888D01*
X2260091Y4867616D01*
X2269239Y4872898D01*
X2276709Y4880367D01*
X2281990Y4889515D01*
X2284724Y4899718D01*
Y4910282D01*
X2281990Y4920485D01*
X2276709Y4929633D01*
X2269239Y4937102D01*
X2260091Y4942384D01*
X2249888Y4945118D01*
D02*
G37*
G36*
X5284577Y4759764D02*
X5275423D01*
X5266582Y4757395D01*
X5258654Y4752818D01*
X5252182Y4746346D01*
X5247605Y4738418D01*
X5245236Y4729577D01*
Y4720423D01*
X5247605Y4711582D01*
X5252182Y4703654D01*
X5258654Y4697182D01*
X5266582Y4692605D01*
X5275423Y4690236D01*
X5284577D01*
X5293418Y4692605D01*
X5301346Y4697182D01*
X5307818Y4703654D01*
X5312395Y4711582D01*
X5314764Y4720423D01*
Y4729577D01*
X5312395Y4738418D01*
X5307818Y4746346D01*
X5301346Y4752818D01*
X5293418Y4757395D01*
X5284577Y4759764D01*
D02*
G37*
G36*
X4495266Y4630000D02*
X4484734D01*
X4474561Y4627274D01*
X4465439Y4622008D01*
X4457992Y4614561D01*
X4452726Y4605439D01*
X4450000Y4595266D01*
Y4584734D01*
X4452726Y4574561D01*
X4457992Y4565439D01*
X4465439Y4557992D01*
X4474561Y4552726D01*
X4484734Y4550000D01*
X4495266D01*
X4505439Y4552726D01*
X4514561Y4557992D01*
X4522008Y4565439D01*
X4527274Y4574561D01*
X4530000Y4584734D01*
Y4595266D01*
X4527274Y4605439D01*
X4522008Y4614561D01*
X4514561Y4622008D01*
X4505439Y4627274D01*
X4495266Y4630000D01*
D02*
G37*
G36*
X5095266Y4530000D02*
X5084734D01*
X5074561Y4527274D01*
X5065439Y4522008D01*
X5057992Y4514561D01*
X5052726Y4505439D01*
X5050000Y4495266D01*
Y4484734D01*
X5052726Y4474561D01*
X5057992Y4465439D01*
X5065439Y4457992D01*
X5074561Y4452726D01*
X5084734Y4450000D01*
X5095266D01*
X5105439Y4452726D01*
X5114561Y4457992D01*
X5122008Y4465439D01*
X5127274Y4474561D01*
X5130000Y4484734D01*
Y4495266D01*
X5127274Y4505439D01*
X5122008Y4514561D01*
X5114561Y4522008D01*
X5105439Y4527274D01*
X5095266Y4530000D01*
D02*
G37*
G36*
Y4430000D02*
X5084734D01*
X5074561Y4427274D01*
X5065439Y4422008D01*
X5057992Y4414561D01*
X5052726Y4405439D01*
X5050000Y4395266D01*
Y4384734D01*
X5052726Y4374561D01*
X5057992Y4365439D01*
X5065439Y4357992D01*
X5074561Y4352726D01*
X5084734Y4350000D01*
X5095266D01*
X5105439Y4352726D01*
X5114561Y4357992D01*
X5122008Y4365439D01*
X5127274Y4374561D01*
X5130000Y4384734D01*
Y4395266D01*
X5127274Y4405439D01*
X5122008Y4414561D01*
X5114561Y4422008D01*
X5105439Y4427274D01*
X5095266Y4430000D01*
D02*
G37*
G36*
X4495266D02*
X4484734D01*
X4474561Y4427274D01*
X4465439Y4422008D01*
X4457992Y4414561D01*
X4452726Y4405439D01*
X4450000Y4395266D01*
Y4384734D01*
X4452726Y4374561D01*
X4457992Y4365439D01*
X4465439Y4357992D01*
X4474561Y4352726D01*
X4484734Y4350000D01*
X4495266D01*
X4505439Y4352726D01*
X4514561Y4357992D01*
X4522008Y4365439D01*
X4527274Y4374561D01*
X4530000Y4384734D01*
Y4395266D01*
X4527274Y4405439D01*
X4522008Y4414561D01*
X4514561Y4422008D01*
X4505439Y4427274D01*
X4495266Y4430000D01*
D02*
G37*
G36*
X5095266Y4330000D02*
X5084734D01*
X5074561Y4327274D01*
X5065439Y4322008D01*
X5057992Y4314561D01*
X5052726Y4305439D01*
X5050000Y4295266D01*
Y4284734D01*
X5052726Y4274561D01*
X5057992Y4265439D01*
X5065439Y4257992D01*
X5074561Y4252726D01*
X5084734Y4250000D01*
X5095266D01*
X5105439Y4252726D01*
X5114561Y4257992D01*
X5122008Y4265439D01*
X5127274Y4274561D01*
X5130000Y4284734D01*
Y4295266D01*
X5127274Y4305439D01*
X5122008Y4314561D01*
X5114561Y4322008D01*
X5105439Y4327274D01*
X5095266Y4330000D01*
D02*
G37*
G36*
X4495266D02*
X4484734D01*
X4474561Y4327274D01*
X4465439Y4322008D01*
X4457992Y4314561D01*
X4452726Y4305439D01*
X4450000Y4295266D01*
Y4284734D01*
X4452726Y4274561D01*
X4457992Y4265439D01*
X4465439Y4257992D01*
X4474561Y4252726D01*
X4484734Y4250000D01*
X4495266D01*
X4505439Y4252726D01*
X4514561Y4257992D01*
X4522008Y4265439D01*
X4527274Y4274561D01*
X4530000Y4284734D01*
Y4295266D01*
X4527274Y4305439D01*
X4522008Y4314561D01*
X4514561Y4322008D01*
X4505439Y4327274D01*
X4495266Y4330000D01*
D02*
G37*
G36*
X5095266Y4230000D02*
X5084734D01*
X5074561Y4227274D01*
X5065439Y4222008D01*
X5057992Y4214561D01*
X5052726Y4205439D01*
X5050000Y4195266D01*
Y4184734D01*
X5052726Y4174561D01*
X5057992Y4165439D01*
X5065439Y4157992D01*
X5074561Y4152726D01*
X5084734Y4150000D01*
X5095266D01*
X5105439Y4152726D01*
X5114561Y4157992D01*
X5122008Y4165439D01*
X5127274Y4174561D01*
X5130000Y4184734D01*
Y4195266D01*
X5127274Y4205439D01*
X5122008Y4214561D01*
X5114561Y4222008D01*
X5105439Y4227274D01*
X5095266Y4230000D01*
D02*
G37*
G36*
X4495266D02*
X4484734D01*
X4474561Y4227274D01*
X4465439Y4222008D01*
X4457992Y4214561D01*
X4452726Y4205439D01*
X4452687Y4205294D01*
X3829606D01*
X3823753Y4204130D01*
X3818792Y4200814D01*
X3560262Y3942285D01*
X3560091Y3942384D01*
X3549888Y3945118D01*
X3539324D01*
X3529121Y3942384D01*
X3519973Y3937102D01*
X3515294Y3932423D01*
X3505294Y3936370D01*
Y3941000D01*
X3504130Y3946853D01*
X3500814Y3951814D01*
X3490814Y3961814D01*
X3485853Y3965130D01*
X3480000Y3966294D01*
X2990606D01*
X2984753Y3965130D01*
X2979792Y3961814D01*
X2960262Y3942285D01*
X2960091Y3942384D01*
X2949888Y3945118D01*
X2939324D01*
X2929121Y3942384D01*
X2919973Y3937102D01*
X2912503Y3929633D01*
X2907222Y3920485D01*
X2904488Y3910282D01*
Y3899718D01*
X2907222Y3889515D01*
X2912503Y3880367D01*
X2919973Y3872898D01*
X2929121Y3867616D01*
X2939324Y3864882D01*
X2949888D01*
X2960091Y3867616D01*
X2969239Y3872898D01*
X2976709Y3880367D01*
X2981990Y3889515D01*
X2984724Y3899718D01*
Y3910282D01*
X2981990Y3920485D01*
X2981891Y3920656D01*
X2996043Y3934808D01*
X3005724Y3933889D01*
X3010043Y3925371D01*
X3007222Y3920485D01*
X3004488Y3910282D01*
Y3899718D01*
X3007222Y3889515D01*
X3012503Y3880367D01*
X3019973Y3872898D01*
X3029121Y3867616D01*
X3039324Y3864882D01*
X3049888D01*
X3060091Y3867616D01*
X3069239Y3872898D01*
X3076709Y3880367D01*
X3081990Y3889515D01*
X3084724Y3899718D01*
Y3910282D01*
X3081990Y3920485D01*
X3078976Y3925706D01*
X3083970Y3935706D01*
X3105242D01*
X3110236Y3925706D01*
X3107222Y3920485D01*
X3104488Y3910282D01*
Y3899718D01*
X3107222Y3889515D01*
X3112503Y3880367D01*
X3119973Y3872898D01*
X3129121Y3867616D01*
X3139324Y3864882D01*
X3149888D01*
X3160091Y3867616D01*
X3160262Y3867715D01*
X3197919Y3830058D01*
X3193777Y3820058D01*
X2851177D01*
X2781891Y3889344D01*
X2781990Y3889515D01*
X2784724Y3899718D01*
Y3910282D01*
X2781990Y3920485D01*
X2779169Y3925371D01*
X2783488Y3933889D01*
X2793169Y3934808D01*
X2807321Y3920656D01*
X2807222Y3920485D01*
X2804488Y3910282D01*
Y3899718D01*
X2807222Y3889515D01*
X2812503Y3880367D01*
X2819973Y3872898D01*
X2829121Y3867616D01*
X2839324Y3864882D01*
X2849888D01*
X2860091Y3867616D01*
X2869239Y3872898D01*
X2876709Y3880367D01*
X2881990Y3889515D01*
X2884724Y3899718D01*
Y3910282D01*
X2881990Y3920485D01*
X2876709Y3929633D01*
X2869239Y3937102D01*
X2860091Y3942384D01*
X2849888Y3945118D01*
X2839324D01*
X2829121Y3942384D01*
X2828950Y3942285D01*
X2809420Y3961814D01*
X2804459Y3965130D01*
X2798606Y3966294D01*
X2720000D01*
X2714147Y3965130D01*
X2709186Y3961814D01*
X2688186Y3940814D01*
X2684870Y3935853D01*
X2684726Y3935126D01*
X2683754Y3934461D01*
X2673980Y3932362D01*
X2669239Y3937102D01*
X2660091Y3942384D01*
X2649888Y3945118D01*
X2639324D01*
X2629121Y3942384D01*
X2619973Y3937102D01*
X2612503Y3929633D01*
X2607222Y3920485D01*
X2604488Y3910282D01*
Y3899718D01*
X2607222Y3889515D01*
X2607321Y3889344D01*
X2494974Y3776996D01*
X2491658Y3772035D01*
X2490494Y3766182D01*
Y3229550D01*
X2481417Y3227323D01*
X2480494Y3227323D01*
X2376771D01*
Y3122677D01*
X2481417D01*
Y3132588D01*
X2491417Y3133573D01*
X2491658Y3132359D01*
X2494974Y3127398D01*
X2632186Y2990186D01*
X2637147Y2986870D01*
X2643000Y2985706D01*
X4414000D01*
X4419853Y2986870D01*
X4424814Y2990186D01*
X4480930Y3046301D01*
X4485787Y3045000D01*
X4494213D01*
X4502351Y3047181D01*
X4509648Y3051394D01*
X4515606Y3057352D01*
X4519819Y3064648D01*
X4522000Y3072787D01*
Y3081213D01*
X4519819Y3089352D01*
X4515606Y3096648D01*
X4511255Y3101000D01*
X4512760Y3107624D01*
X4514853Y3111000D01*
X4522000D01*
Y3175000D01*
X4458000D01*
Y3111000D01*
X4465147D01*
X4467240Y3107624D01*
X4468745Y3101000D01*
X4464394Y3096648D01*
X4460181Y3089352D01*
X4458000Y3081213D01*
Y3072787D01*
X4459301Y3067930D01*
X4407665Y3016294D01*
X2649335D01*
X2521082Y3144547D01*
Y3582372D01*
X2530321Y3586198D01*
X2698781Y3417739D01*
X2697362Y3412445D01*
Y3403851D01*
X2699586Y3395550D01*
X2703883Y3388108D01*
X2709960Y3382031D01*
X2717402Y3377734D01*
X2725703Y3375510D01*
X2734297D01*
X2742598Y3377734D01*
X2750040Y3382031D01*
X2756117Y3388108D01*
X2760414Y3395550D01*
X2762638Y3403851D01*
Y3412445D01*
X2760414Y3420746D01*
X2756117Y3428188D01*
X2750040Y3434265D01*
X2742598Y3438562D01*
X2734297Y3440786D01*
X2725703D01*
X2720409Y3439367D01*
X2541082Y3618695D01*
Y3683666D01*
X2550828Y3689586D01*
X2559129Y3687362D01*
X2567723D01*
X2573017Y3688781D01*
X2598612Y3663186D01*
X2603573Y3659870D01*
X2609426Y3658706D01*
X3334000D01*
X3339853Y3659870D01*
X3344814Y3663186D01*
X3393674Y3712045D01*
X3400423Y3710236D01*
X3409577D01*
X3416326Y3712045D01*
X3621186Y3507186D01*
X3626147Y3503870D01*
X3632000Y3502706D01*
X4639867D01*
X4644747Y3495092D01*
X4640547Y3486138D01*
X4000000D01*
X3994147Y3484974D01*
X3989186Y3481658D01*
X3939186Y3431658D01*
X3935870Y3426697D01*
X3934706Y3420844D01*
Y3136312D01*
X3928655Y3132818D01*
X3922182Y3126345D01*
X3917605Y3118418D01*
X3915236Y3109577D01*
Y3100423D01*
X3917605Y3091582D01*
X3922182Y3083655D01*
X3928655Y3077182D01*
X3936582Y3072605D01*
X3945423Y3070236D01*
X3954577D01*
X3963418Y3072605D01*
X3971345Y3077182D01*
X3977818Y3083655D01*
X3982395Y3091582D01*
X3984764Y3100423D01*
Y3109577D01*
X3982395Y3118418D01*
X3977818Y3126345D01*
X3971345Y3132818D01*
X3965294Y3136312D01*
Y3414509D01*
X4006335Y3455550D01*
X4667821D01*
X4709291Y3414080D01*
Y3354291D01*
X4790709D01*
Y3413691D01*
X4799947Y3417518D01*
X5026771Y3190694D01*
Y3107677D01*
X5131417D01*
Y3144706D01*
X5184929D01*
X5186243Y3139804D01*
X5193131Y3127873D01*
X5202873Y3118131D01*
X5214804Y3111243D01*
X5228112Y3107677D01*
X5241888D01*
X5255196Y3111243D01*
X5267127Y3118131D01*
X5276869Y3127873D01*
X5283757Y3139804D01*
X5287323Y3153112D01*
Y3166888D01*
X5283757Y3180196D01*
X5276869Y3192127D01*
X5267127Y3201869D01*
X5255196Y3208757D01*
X5241888Y3212323D01*
X5228112D01*
X5214804Y3208757D01*
X5202873Y3201869D01*
X5193131Y3192127D01*
X5186243Y3180196D01*
X5184929Y3175294D01*
X5131417D01*
Y3212323D01*
X5048400D01*
X4729742Y3530981D01*
Y3560000D01*
X4728578Y3565853D01*
X4725262Y3570814D01*
X4702262Y3593814D01*
X4697301Y3597130D01*
X4691448Y3598294D01*
X3638335D01*
X3459430Y3777199D01*
X3461776Y3781795D01*
X3465325Y3785446D01*
X3469648Y3784586D01*
X3774037D01*
X3776717Y3774586D01*
X3773655Y3772818D01*
X3767182Y3766345D01*
X3762605Y3758418D01*
X3760236Y3749577D01*
Y3740423D01*
X3762605Y3731582D01*
X3767182Y3723655D01*
X3773655Y3717182D01*
X3781582Y3712605D01*
X3790423Y3710236D01*
X3799577D01*
X3806326Y3712045D01*
X3879540Y3638832D01*
X3884501Y3635516D01*
X3890354Y3634352D01*
X4212734D01*
X4216520Y3627793D01*
X4223147Y3621166D01*
X4231263Y3616481D01*
X4240314Y3614055D01*
X4249686D01*
X4258737Y3616481D01*
X4266853Y3621166D01*
X4273480Y3627793D01*
X4278165Y3635909D01*
X4280591Y3644960D01*
Y3654332D01*
X4278165Y3663383D01*
X4273480Y3671499D01*
X4266853Y3678126D01*
X4258737Y3682811D01*
X4249686Y3685236D01*
X4240314D01*
X4231263Y3682811D01*
X4223147Y3678126D01*
X4216520Y3671499D01*
X4212734Y3664940D01*
X3896689D01*
X3827955Y3733674D01*
X3829764Y3740423D01*
Y3749577D01*
X3827395Y3758418D01*
X3822818Y3766345D01*
X3816345Y3772818D01*
X3813283Y3774586D01*
X3815963Y3784586D01*
X4007785D01*
X4077950Y3714421D01*
X4082911Y3711106D01*
X4088764Y3709942D01*
X4903429D01*
X4932045Y3681326D01*
X4930236Y3674577D01*
Y3665423D01*
X4932605Y3656582D01*
X4937182Y3648655D01*
X4943654Y3642182D01*
X4951582Y3637605D01*
X4960423Y3635236D01*
X4969577D01*
X4978418Y3637605D01*
X4986346Y3642182D01*
X4992818Y3648655D01*
X4997395Y3656582D01*
X4999764Y3665423D01*
Y3674577D01*
X4997395Y3683418D01*
X4992818Y3691345D01*
X4986346Y3697818D01*
X4978418Y3702395D01*
X4969577Y3704764D01*
X4960423D01*
X4953674Y3702955D01*
X4920578Y3736050D01*
X4915617Y3739366D01*
X4909764Y3740530D01*
X4567561D01*
X4561788Y3750530D01*
X4562395Y3751582D01*
X4564764Y3760423D01*
Y3769577D01*
X4562395Y3778418D01*
X4557818Y3786345D01*
X4551346Y3792818D01*
X4548283Y3794586D01*
X4550962Y3804586D01*
X4575415D01*
X4578993Y3798390D01*
X4585510Y3791873D01*
X4593490Y3787265D01*
X4602392Y3784880D01*
X4611608D01*
X4620510Y3787265D01*
X4628490Y3791873D01*
X4635007Y3798390D01*
X4639615Y3806370D01*
X4642000Y3815272D01*
Y3824488D01*
X4639615Y3833390D01*
X4635007Y3841370D01*
X4628490Y3847887D01*
X4620510Y3852495D01*
X4611608Y3854880D01*
X4602392D01*
X4593490Y3852495D01*
X4585510Y3847887D01*
X4578993Y3841370D01*
X4575415Y3835174D01*
X4521585D01*
X4518007Y3841370D01*
X4511490Y3847887D01*
X4503510Y3852495D01*
X4494608Y3854880D01*
X4485392D01*
X4476490Y3852495D01*
X4468510Y3847887D01*
X4461993Y3841370D01*
X4458415Y3835174D01*
X3909474D01*
X3905648Y3844413D01*
X3928950Y3867715D01*
X3929121Y3867616D01*
X3939324Y3864882D01*
X3949888D01*
X3960091Y3867616D01*
X3969239Y3872898D01*
X3976709Y3880367D01*
X3981990Y3889515D01*
X3984724Y3899718D01*
Y3906362D01*
X3986046Y3911139D01*
X3993545Y3916000D01*
X3995667D01*
X3997800Y3915076D01*
X4004488Y3907759D01*
Y3899718D01*
X4007222Y3889515D01*
X4012503Y3880367D01*
X4019973Y3872898D01*
X4029121Y3867616D01*
X4039324Y3864882D01*
X4049888D01*
X4060091Y3867616D01*
X4069239Y3872898D01*
X4076709Y3880367D01*
X4081990Y3889515D01*
X4084724Y3899718D01*
Y3910282D01*
X4081990Y3920485D01*
X4076709Y3929633D01*
X4069239Y3937102D01*
X4060091Y3942384D01*
X4049888Y3945118D01*
X4039324D01*
X4036583Y3944384D01*
X4035778Y3944552D01*
X4027000Y3952169D01*
Y3955608D01*
X4024615Y3964510D01*
X4020007Y3972490D01*
X4013490Y3979007D01*
X4005510Y3983615D01*
X3996608Y3986000D01*
X3987392D01*
X3978490Y3983615D01*
X3970510Y3979007D01*
X3963993Y3972490D01*
X3960415Y3966294D01*
X3720000D01*
X3714147Y3965130D01*
X3709186Y3961814D01*
X3683465Y3936094D01*
X3679056Y3931878D01*
X3670110Y3936231D01*
X3669239Y3937102D01*
X3660091Y3942384D01*
X3649888Y3945118D01*
X3639324D01*
X3629121Y3942384D01*
X3619973Y3937102D01*
X3612503Y3929633D01*
X3607222Y3920485D01*
X3604488Y3910282D01*
Y3899718D01*
X3607222Y3889515D01*
X3609728Y3885174D01*
X3604095Y3875174D01*
X3585117D01*
X3579484Y3885174D01*
X3581990Y3889515D01*
X3584724Y3899718D01*
Y3910282D01*
X3581990Y3920485D01*
X3581891Y3920656D01*
X3835941Y4174706D01*
X4452687D01*
X4452726Y4174561D01*
X4457992Y4165439D01*
X4465439Y4157992D01*
X4474561Y4152726D01*
X4484734Y4150000D01*
X4495266D01*
X4505439Y4152726D01*
X4514561Y4157992D01*
X4522008Y4165439D01*
X4527274Y4174561D01*
X4530000Y4184734D01*
Y4195266D01*
X4527274Y4205439D01*
X4522008Y4214561D01*
X4514561Y4222008D01*
X4505439Y4227274D01*
X4495266Y4230000D01*
D02*
G37*
G36*
Y4130000D02*
X4484734D01*
X4474561Y4127274D01*
X4465439Y4122008D01*
X4457992Y4114561D01*
X4452726Y4105439D01*
X4450000Y4095266D01*
Y4084734D01*
X4452726Y4074561D01*
X4457992Y4065439D01*
X4465439Y4057992D01*
X4474561Y4052726D01*
X4484734Y4050000D01*
X4495266D01*
X4505439Y4052726D01*
X4514561Y4057992D01*
X4522008Y4065439D01*
X4527274Y4074561D01*
X4530000Y4084734D01*
Y4095266D01*
X4527274Y4105439D01*
X4522008Y4114561D01*
X4514561Y4122008D01*
X4505439Y4127274D01*
X4495266Y4130000D01*
D02*
G37*
G36*
X5294297Y4081064D02*
X5285703D01*
X5277402Y4078840D01*
X5269960Y4074543D01*
X5263883Y4068466D01*
X5259586Y4061024D01*
X5257362Y4052723D01*
Y4044129D01*
X5259586Y4035828D01*
X5263883Y4028386D01*
X5269960Y4022309D01*
X5277402Y4018012D01*
X5285703Y4015788D01*
X5294297D01*
X5302598Y4018012D01*
X5310040Y4022309D01*
X5316117Y4028386D01*
X5320414Y4035828D01*
X5322638Y4044129D01*
Y4052723D01*
X5320414Y4061024D01*
X5316117Y4068466D01*
X5310040Y4074543D01*
X5302598Y4078840D01*
X5294297Y4081064D01*
D02*
G37*
G36*
X2549888Y3945118D02*
X2539324D01*
X2529121Y3942384D01*
X2519973Y3937102D01*
X2512503Y3929633D01*
X2507222Y3920485D01*
X2504488Y3910282D01*
Y3899718D01*
X2507222Y3889515D01*
X2512503Y3880367D01*
X2519973Y3872898D01*
X2529121Y3867616D01*
X2539324Y3864882D01*
X2549888D01*
X2560091Y3867616D01*
X2569239Y3872898D01*
X2576709Y3880367D01*
X2581990Y3889515D01*
X2584724Y3899718D01*
Y3910282D01*
X2581990Y3920485D01*
X2576709Y3929633D01*
X2569239Y3937102D01*
X2560091Y3942384D01*
X2549888Y3945118D01*
D02*
G37*
G36*
X2449888D02*
X2439324D01*
X2429121Y3942384D01*
X2419973Y3937102D01*
X2412503Y3929633D01*
X2407222Y3920485D01*
X2404488Y3910282D01*
Y3899718D01*
X2407222Y3889515D01*
X2412503Y3880367D01*
X2419973Y3872898D01*
X2429121Y3867616D01*
X2439324Y3864882D01*
X2449888D01*
X2460091Y3867616D01*
X2469239Y3872898D01*
X2476709Y3880367D01*
X2481990Y3889515D01*
X2484724Y3899718D01*
Y3910282D01*
X2481990Y3920485D01*
X2476709Y3929633D01*
X2469239Y3937102D01*
X2460091Y3942384D01*
X2449888Y3945118D01*
D02*
G37*
G36*
X2349888D02*
X2339324D01*
X2329121Y3942384D01*
X2319973Y3937102D01*
X2312503Y3929633D01*
X2307222Y3920485D01*
X2304488Y3910282D01*
Y3899718D01*
X2307222Y3889515D01*
X2312503Y3880367D01*
X2319973Y3872898D01*
X2329121Y3867616D01*
X2339324Y3864882D01*
X2349888D01*
X2360091Y3867616D01*
X2369239Y3872898D01*
X2376709Y3880367D01*
X2381990Y3889515D01*
X2384724Y3899718D01*
Y3910282D01*
X2381990Y3920485D01*
X2376709Y3929633D01*
X2369239Y3937102D01*
X2360091Y3942384D01*
X2349888Y3945118D01*
D02*
G37*
G36*
X2249888D02*
X2239324D01*
X2229121Y3942384D01*
X2219973Y3937102D01*
X2212503Y3929633D01*
X2207222Y3920485D01*
X2204488Y3910282D01*
Y3899718D01*
X2207222Y3889515D01*
X2212503Y3880367D01*
X2219973Y3872898D01*
X2229121Y3867616D01*
X2239324Y3864882D01*
X2249888D01*
X2260091Y3867616D01*
X2269239Y3872898D01*
X2276709Y3880367D01*
X2281990Y3889515D01*
X2284724Y3899718D01*
Y3910282D01*
X2281990Y3920485D01*
X2276709Y3929633D01*
X2269239Y3937102D01*
X2260091Y3942384D01*
X2249888Y3945118D01*
D02*
G37*
G36*
X4495266Y4530000D02*
X4484734D01*
X4474561Y4527274D01*
X4465439Y4522008D01*
X4457992Y4514561D01*
X4452726Y4505439D01*
X4450000Y4495266D01*
Y4484734D01*
X4452726Y4474561D01*
X4457992Y4465439D01*
X4465439Y4457992D01*
X4474561Y4452726D01*
X4484734Y4450000D01*
X4495266D01*
X4505439Y4452726D01*
X4514561Y4457992D01*
X4522008Y4465439D01*
X4527274Y4474561D01*
X4527313Y4474706D01*
X4645239D01*
X5258781Y3861165D01*
X5257362Y3855871D01*
Y3847277D01*
X5259586Y3838976D01*
X5263883Y3831534D01*
X5269960Y3825457D01*
X5277402Y3821160D01*
X5285703Y3818936D01*
X5294297D01*
X5302598Y3821160D01*
X5310040Y3825457D01*
X5316117Y3831534D01*
X5320414Y3838976D01*
X5322638Y3847277D01*
Y3855871D01*
X5320414Y3864172D01*
X5316117Y3871614D01*
X5310040Y3877691D01*
X5302598Y3881988D01*
X5294297Y3884212D01*
X5285703D01*
X5280409Y3882793D01*
X4662388Y4500814D01*
X4657427Y4504130D01*
X4651574Y4505294D01*
X4527313D01*
X4527274Y4505439D01*
X4522008Y4514561D01*
X4514561Y4522008D01*
X4505439Y4527274D01*
X4495266Y4530000D01*
D02*
G37*
G36*
X2370871Y3752638D02*
X2362277D01*
X2353976Y3750414D01*
X2346534Y3746117D01*
X2340457Y3740040D01*
X2336160Y3732598D01*
X2333936Y3724297D01*
Y3715703D01*
X2336160Y3707402D01*
X2340457Y3699960D01*
X2346534Y3693883D01*
X2353976Y3689586D01*
X2362277Y3687362D01*
X2370871D01*
X2379172Y3689586D01*
X2386614Y3693883D01*
X2392691Y3699960D01*
X2396988Y3707402D01*
X2399212Y3715703D01*
Y3724297D01*
X2396988Y3732598D01*
X2392691Y3740040D01*
X2386614Y3746117D01*
X2379172Y3750414D01*
X2370871Y3752638D01*
D02*
G37*
G36*
X5359577Y3704764D02*
X5350423D01*
X5341582Y3702395D01*
X5333654Y3697818D01*
X5327182Y3691345D01*
X5323688Y3685294D01*
X5082834D01*
X5076981Y3684130D01*
X5072020Y3680814D01*
X4945639Y3554434D01*
X4937649Y3556575D01*
X4928019D01*
X4918717Y3554082D01*
X4910377Y3549267D01*
X4903567Y3542457D01*
X4898752Y3534117D01*
X4896259Y3524815D01*
Y3515185D01*
X4898752Y3505883D01*
X4903567Y3497543D01*
X4910377Y3490733D01*
X4918717Y3485918D01*
X4928019Y3483425D01*
X4937649D01*
X4946951Y3485918D01*
X4955292Y3490733D01*
X4962101Y3497543D01*
X4966916Y3505883D01*
X4969409Y3515185D01*
Y3524815D01*
X4967268Y3532805D01*
X5089169Y3654706D01*
X5323688D01*
X5327182Y3648655D01*
X5333654Y3642182D01*
X5341582Y3637605D01*
X5350423Y3635236D01*
X5359577D01*
X5368418Y3637605D01*
X5376346Y3642182D01*
X5382818Y3648655D01*
X5387395Y3656582D01*
X5389764Y3665423D01*
Y3674577D01*
X5387395Y3683418D01*
X5382818Y3691345D01*
X5376346Y3697818D01*
X5368418Y3702395D01*
X5359577Y3704764D01*
D02*
G37*
G36*
X2734297Y3637638D02*
X2725703D01*
X2717402Y3635414D01*
X2709960Y3631117D01*
X2703883Y3625040D01*
X2699586Y3617598D01*
X2697362Y3609297D01*
Y3600703D01*
X2699586Y3592402D01*
X2703883Y3584960D01*
X2709960Y3578883D01*
X2717402Y3574586D01*
X2725703Y3572362D01*
X2734297D01*
X2742598Y3574586D01*
X2750040Y3578883D01*
X2756117Y3584960D01*
X2760414Y3592402D01*
X2762638Y3600703D01*
Y3609297D01*
X2760414Y3617598D01*
X2756117Y3625040D01*
X2750040Y3631117D01*
X2742598Y3635414D01*
X2734297Y3637638D01*
D02*
G37*
G36*
X5291981Y3556575D02*
X5282351D01*
X5273049Y3554082D01*
X5264708Y3549267D01*
X5257899Y3542457D01*
X5253084Y3534117D01*
X5250591Y3524815D01*
Y3515185D01*
X5253084Y3505883D01*
X5257899Y3497543D01*
X5264708Y3490733D01*
X5273049Y3485918D01*
X5282351Y3483425D01*
X5291981D01*
X5301283Y3485918D01*
X5309623Y3490733D01*
X5316433Y3497543D01*
X5321248Y3505883D01*
X5323741Y3515185D01*
Y3524815D01*
X5321248Y3534117D01*
X5316433Y3542457D01*
X5309623Y3549267D01*
X5301283Y3554082D01*
X5291981Y3556575D01*
D02*
G37*
G36*
X4655359Y3435709D02*
X4644641D01*
X4634287Y3432934D01*
X4625004Y3427575D01*
X4617425Y3419996D01*
X4612066Y3410713D01*
X4609291Y3400359D01*
Y3389641D01*
X4612066Y3379287D01*
X4617425Y3370004D01*
X4625004Y3362425D01*
X4634287Y3357066D01*
X4644641Y3354291D01*
X4655359D01*
X4665713Y3357066D01*
X4674996Y3362425D01*
X4682575Y3370004D01*
X4687934Y3379287D01*
X4690709Y3389641D01*
Y3400359D01*
X4687934Y3410713D01*
X4682575Y3419996D01*
X4674996Y3427575D01*
X4665713Y3432934D01*
X4655359Y3435709D01*
D02*
G37*
G36*
X4249686Y3415945D02*
X4240314D01*
X4231263Y3413519D01*
X4223147Y3408834D01*
X4216520Y3402207D01*
X4211835Y3394091D01*
X4209409Y3385040D01*
Y3375668D01*
X4211835Y3366617D01*
X4216520Y3358501D01*
X4223147Y3351874D01*
X4231263Y3347189D01*
X4240314Y3344764D01*
X4249686D01*
X4258737Y3347189D01*
X4266853Y3351874D01*
X4273480Y3358501D01*
X4278165Y3366617D01*
X4280591Y3375668D01*
Y3385040D01*
X4278165Y3394091D01*
X4273480Y3402207D01*
X4266853Y3408834D01*
X4258737Y3413519D01*
X4249686Y3415945D01*
D02*
G37*
G36*
X4534577Y3409764D02*
X4525423D01*
X4516582Y3407395D01*
X4508654Y3402818D01*
X4502182Y3396345D01*
X4497605Y3388418D01*
X4495236Y3379577D01*
Y3370423D01*
X4497605Y3361582D01*
X4502182Y3353655D01*
X4508654Y3347182D01*
X4516582Y3342605D01*
X4525423Y3340236D01*
X4534577D01*
X4543418Y3342605D01*
X4551346Y3347182D01*
X4557818Y3353655D01*
X4562395Y3361582D01*
X4564764Y3370423D01*
Y3379577D01*
X4562395Y3388418D01*
X4557818Y3396345D01*
X4551346Y3402818D01*
X4543418Y3407395D01*
X4534577Y3409764D01*
D02*
G37*
G36*
X4394577D02*
X4385423D01*
X4376582Y3407395D01*
X4368654Y3402818D01*
X4362182Y3396345D01*
X4357605Y3388418D01*
X4355236Y3379577D01*
Y3370423D01*
X4357605Y3361582D01*
X4362182Y3353655D01*
X4368654Y3347182D01*
X4376582Y3342605D01*
X4385423Y3340236D01*
X4394577D01*
X4403418Y3342605D01*
X4411346Y3347182D01*
X4417818Y3353655D01*
X4422395Y3361582D01*
X4424764Y3370423D01*
Y3379577D01*
X4422395Y3388418D01*
X4417818Y3396345D01*
X4411346Y3402818D01*
X4403418Y3407395D01*
X4394577Y3409764D01*
D02*
G37*
G36*
X4114577D02*
X4105423D01*
X4096582Y3407395D01*
X4088655Y3402818D01*
X4082182Y3396345D01*
X4077605Y3388418D01*
X4075236Y3379577D01*
Y3370423D01*
X4077605Y3361582D01*
X4082182Y3353655D01*
X4088655Y3347182D01*
X4096582Y3342605D01*
X4105423Y3340236D01*
X4114577D01*
X4123418Y3342605D01*
X4131346Y3347182D01*
X4137818Y3353655D01*
X4142395Y3361582D01*
X4144764Y3370423D01*
Y3379577D01*
X4142395Y3388418D01*
X4137818Y3396345D01*
X4131346Y3402818D01*
X4123418Y3407395D01*
X4114577Y3409764D01*
D02*
G37*
G36*
X4439577Y3284764D02*
X4430423D01*
X4421582Y3282395D01*
X4413654Y3277818D01*
X4407182Y3271345D01*
X4402605Y3263418D01*
X4400236Y3254577D01*
Y3245423D01*
X4402605Y3236582D01*
X4407182Y3228655D01*
X4413654Y3222182D01*
X4421582Y3217605D01*
X4430423Y3215236D01*
X4439577D01*
X4448418Y3217605D01*
X4456346Y3222182D01*
X4462818Y3228655D01*
X4467395Y3236582D01*
X4469764Y3245423D01*
Y3254577D01*
X4467395Y3263418D01*
X4462818Y3271345D01*
X4456346Y3277818D01*
X4448418Y3282395D01*
X4439577Y3284764D01*
D02*
G37*
G36*
X3566535Y3437991D02*
X3133465D01*
X3129563Y3437215D01*
X3126255Y3435005D01*
X3124045Y3431697D01*
X3123269Y3427795D01*
Y3152205D01*
X3124045Y3148303D01*
X3126255Y3144995D01*
X3129563Y3142785D01*
X3133465Y3142009D01*
X3566535D01*
X3570437Y3142785D01*
X3573745Y3144995D01*
X3575955Y3148303D01*
X3576731Y3152205D01*
Y3427795D01*
X3575955Y3431697D01*
X3573745Y3435005D01*
X3570437Y3437215D01*
X3566535Y3437991D01*
D02*
G37*
G36*
X2591888Y3227323D02*
X2578112D01*
X2564804Y3223757D01*
X2552873Y3216869D01*
X2543131Y3207127D01*
X2536243Y3195196D01*
X2532677Y3181888D01*
Y3168112D01*
X2536243Y3154804D01*
X2543131Y3142873D01*
X2552873Y3133131D01*
X2564804Y3126243D01*
X2578112Y3122677D01*
X2591888D01*
X2605196Y3126243D01*
X2617127Y3133131D01*
X2626869Y3142873D01*
X2633757Y3154804D01*
X2637323Y3168112D01*
Y3181888D01*
X2633757Y3195196D01*
X2626869Y3207127D01*
X2617127Y3216869D01*
X2605196Y3223757D01*
X2591888Y3227323D01*
D02*
G37*
G36*
X4851888Y3207323D02*
X4838112D01*
X4824804Y3203757D01*
X4812873Y3196869D01*
X4803131Y3187127D01*
X4796243Y3175196D01*
X4792677Y3161888D01*
Y3148112D01*
X4796243Y3134804D01*
X4803131Y3122873D01*
X4812873Y3113131D01*
X4824804Y3106243D01*
X4838112Y3102677D01*
X4851888D01*
X4865196Y3106243D01*
X4877127Y3113131D01*
X4886869Y3122873D01*
X4893757Y3134804D01*
X4897323Y3148112D01*
Y3161888D01*
X4893757Y3175196D01*
X4886869Y3187127D01*
X4877127Y3196869D01*
X4865196Y3203757D01*
X4851888Y3207323D01*
D02*
G37*
G36*
X4741417D02*
X4636771D01*
Y3102677D01*
X4741417D01*
Y3207323D01*
D02*
G37*
G36*
X4049577Y3284764D02*
X4040423D01*
X4031582Y3282395D01*
X4023655Y3277818D01*
X4017182Y3271345D01*
X4012605Y3263418D01*
X4010236Y3254577D01*
Y3245423D01*
X4012605Y3236582D01*
X4017182Y3228655D01*
X4023655Y3222182D01*
X4031582Y3217605D01*
X4040423Y3215236D01*
X4049577D01*
X4056326Y3217045D01*
X4179186Y3094186D01*
X4184147Y3090870D01*
X4190000Y3089706D01*
X4308688D01*
X4312182Y3083655D01*
X4318654Y3077182D01*
X4326582Y3072605D01*
X4335423Y3070236D01*
X4344577D01*
X4353418Y3072605D01*
X4361346Y3077182D01*
X4367818Y3083655D01*
X4372395Y3091582D01*
X4374764Y3100423D01*
Y3109577D01*
X4372395Y3118418D01*
X4367818Y3126345D01*
X4361346Y3132818D01*
X4353418Y3137395D01*
X4344577Y3139764D01*
X4335423D01*
X4326582Y3137395D01*
X4318654Y3132818D01*
X4312182Y3126345D01*
X4308688Y3120294D01*
X4196335D01*
X4077955Y3238674D01*
X4079764Y3245423D01*
Y3254577D01*
X4077395Y3263418D01*
X4072818Y3271345D01*
X4066345Y3277818D01*
X4058418Y3282395D01*
X4049577Y3284764D01*
D02*
G37*
G36*
X5525981Y3780433D02*
X5514019D01*
X5502463Y3777337D01*
X5492104Y3771355D01*
X5483645Y3762896D01*
X5477663Y3752537D01*
X5474567Y3740981D01*
Y3729019D01*
X5477663Y3717463D01*
X5483645Y3707104D01*
X5492104Y3698645D01*
X5502463Y3692663D01*
X5512665Y3689930D01*
Y3680070D01*
X5502463Y3677337D01*
X5492104Y3671355D01*
X5483645Y3662896D01*
X5477663Y3652537D01*
X5474567Y3640981D01*
Y3629019D01*
X5477663Y3617463D01*
X5483645Y3607104D01*
X5492104Y3598645D01*
X5502463Y3592663D01*
X5512665Y3589930D01*
Y3580070D01*
X5502463Y3577337D01*
X5492104Y3571355D01*
X5483645Y3562896D01*
X5477663Y3552537D01*
X5474567Y3540981D01*
Y3529019D01*
X5477663Y3517463D01*
X5483645Y3507104D01*
X5492104Y3498645D01*
X5502463Y3492663D01*
X5512665Y3489930D01*
Y3480070D01*
X5502463Y3477337D01*
X5492104Y3471355D01*
X5483645Y3462896D01*
X5477663Y3452537D01*
X5474567Y3440981D01*
Y3429019D01*
X5477663Y3417463D01*
X5483645Y3407104D01*
X5492104Y3398645D01*
X5502463Y3392663D01*
X5512665Y3389930D01*
Y3380070D01*
X5502463Y3377337D01*
X5492104Y3371355D01*
X5483645Y3362896D01*
X5477663Y3352537D01*
X5474567Y3340981D01*
Y3329019D01*
X5477663Y3317463D01*
X5483645Y3307104D01*
X5492104Y3298645D01*
X5502463Y3292663D01*
X5512665Y3289930D01*
Y3280070D01*
X5502463Y3277337D01*
X5492104Y3271355D01*
X5483645Y3262896D01*
X5477663Y3252537D01*
X5474567Y3240981D01*
Y3229019D01*
X5477663Y3217463D01*
X5483645Y3207104D01*
X5492104Y3198645D01*
X5502463Y3192663D01*
X5512665Y3189930D01*
Y3180070D01*
X5502463Y3177337D01*
X5492104Y3171355D01*
X5483645Y3162896D01*
X5477663Y3152537D01*
X5474567Y3140981D01*
Y3129019D01*
X5477663Y3117463D01*
X5483645Y3107104D01*
X5492104Y3098645D01*
X5502463Y3092663D01*
X5510787Y3090433D01*
X5509470Y3080433D01*
X5474567D01*
Y2989567D01*
X5565433D01*
Y3080433D01*
X5530530D01*
X5529213Y3090433D01*
X5537537Y3092663D01*
X5547896Y3098645D01*
X5556355Y3107104D01*
X5562337Y3117463D01*
X5565433Y3129019D01*
Y3140981D01*
X5562337Y3152537D01*
X5556355Y3162896D01*
X5547896Y3171355D01*
X5537537Y3177337D01*
X5527335Y3180070D01*
Y3189930D01*
X5537537Y3192663D01*
X5547896Y3198645D01*
X5556355Y3207104D01*
X5562337Y3217463D01*
X5565433Y3229019D01*
Y3240981D01*
X5562337Y3252537D01*
X5556355Y3262896D01*
X5547896Y3271355D01*
X5537537Y3277337D01*
X5527335Y3280070D01*
Y3289930D01*
X5537537Y3292663D01*
X5547896Y3298645D01*
X5556355Y3307104D01*
X5562337Y3317463D01*
X5565433Y3329019D01*
Y3340981D01*
X5562337Y3352537D01*
X5556355Y3362896D01*
X5547896Y3371355D01*
X5537537Y3377337D01*
X5527335Y3380070D01*
Y3389930D01*
X5537537Y3392663D01*
X5547896Y3398645D01*
X5556355Y3407104D01*
X5562337Y3417463D01*
X5565433Y3429019D01*
Y3440981D01*
X5562337Y3452537D01*
X5556355Y3462896D01*
X5547896Y3471355D01*
X5537537Y3477337D01*
X5527335Y3480070D01*
Y3489930D01*
X5537537Y3492663D01*
X5547896Y3498645D01*
X5556355Y3507104D01*
X5562337Y3517463D01*
X5565433Y3529019D01*
Y3540981D01*
X5562337Y3552537D01*
X5556355Y3562896D01*
X5547896Y3571355D01*
X5537537Y3577337D01*
X5527335Y3580070D01*
Y3589930D01*
X5537537Y3592663D01*
X5547896Y3598645D01*
X5556355Y3607104D01*
X5562337Y3617463D01*
X5565433Y3629019D01*
Y3640981D01*
X5562337Y3652537D01*
X5556355Y3662896D01*
X5547896Y3671355D01*
X5537537Y3677337D01*
X5527335Y3680070D01*
Y3689930D01*
X5537537Y3692663D01*
X5547896Y3698645D01*
X5556355Y3707104D01*
X5562337Y3717463D01*
X5565433Y3729019D01*
Y3740981D01*
X5562337Y3752537D01*
X5556355Y3762896D01*
X5547896Y3771355D01*
X5537537Y3777337D01*
X5525981Y3780433D01*
D02*
G37*
%LPD*%
G36*
X3310236Y3925706D02*
X3307222Y3920485D01*
X3304488Y3910282D01*
Y3899718D01*
X3307222Y3889515D01*
X3312503Y3880367D01*
X3319973Y3872898D01*
X3329121Y3867616D01*
X3339324Y3864882D01*
X3349888D01*
X3360091Y3867616D01*
X3360262Y3867715D01*
X3369445Y3858533D01*
X3365618Y3849294D01*
X3221941D01*
X3181891Y3889344D01*
X3181990Y3889515D01*
X3184724Y3899718D01*
Y3910282D01*
X3181990Y3920485D01*
X3178976Y3925706D01*
X3183970Y3935706D01*
X3205242D01*
X3210236Y3925706D01*
X3207222Y3920485D01*
X3204488Y3910282D01*
Y3899718D01*
X3207222Y3889515D01*
X3212503Y3880367D01*
X3219973Y3872898D01*
X3229121Y3867616D01*
X3239324Y3864882D01*
X3249888D01*
X3260091Y3867616D01*
X3269239Y3872898D01*
X3276709Y3880367D01*
X3281990Y3889515D01*
X3284724Y3899718D01*
Y3910282D01*
X3281990Y3920485D01*
X3278976Y3925706D01*
X3283970Y3935706D01*
X3305242D01*
X3310236Y3925706D01*
D02*
G37*
G36*
X2683706Y3873222D02*
Y3836000D01*
X2684870Y3830147D01*
X2688186Y3825186D01*
X2738990Y3774381D01*
X2739034Y3772178D01*
X2737126Y3763456D01*
X2735322Y3762945D01*
X2729814Y3768452D01*
X2724853Y3771768D01*
X2719000Y3772932D01*
X2548309D01*
X2544167Y3782932D01*
X2628950Y3867715D01*
X2629121Y3867616D01*
X2639324Y3864882D01*
X2649888D01*
X2660091Y3867616D01*
X2669239Y3872898D01*
X2673706Y3877365D01*
X2683706Y3873222D01*
D02*
G37*
G36*
X3810236Y3925706D02*
X3807222Y3920485D01*
X3804488Y3910282D01*
Y3899718D01*
X3807222Y3889515D01*
X3812503Y3880367D01*
X3819973Y3872898D01*
X3829121Y3867616D01*
X3839324Y3864882D01*
X3838619Y3855174D01*
X3750593D01*
X3749888Y3864882D01*
X3760091Y3867616D01*
X3769239Y3872898D01*
X3776709Y3880367D01*
X3781990Y3889515D01*
X3784724Y3899718D01*
Y3910282D01*
X3781990Y3920485D01*
X3778976Y3925706D01*
X3783970Y3935706D01*
X3805242D01*
X3810236Y3925706D01*
D02*
G37*
G36*
X2729121Y3867616D02*
X2739324Y3864882D01*
X2749888D01*
X2760091Y3867616D01*
X2760262Y3867715D01*
X2818680Y3809297D01*
X2814854Y3800058D01*
X2756571D01*
X2714294Y3842335D01*
Y3865122D01*
X2724294Y3870403D01*
X2729121Y3867616D01*
D02*
G37*
G36*
X4371717Y3794586D02*
X4368654Y3792818D01*
X4362182Y3786345D01*
X4357605Y3778418D01*
X4355236Y3769577D01*
Y3760423D01*
X4357605Y3751582D01*
X4358212Y3750530D01*
X4352439Y3740530D01*
X4147561D01*
X4141788Y3750530D01*
X4142395Y3751582D01*
X4144764Y3760423D01*
Y3769577D01*
X4142395Y3778418D01*
X4137818Y3786345D01*
X4131346Y3792818D01*
X4128283Y3794586D01*
X4130962Y3804586D01*
X4369038D01*
X4371717Y3794586D01*
D02*
G37*
G36*
X3373213Y3759470D02*
X3372605Y3758418D01*
X3370236Y3749577D01*
Y3740423D01*
X3372045Y3733674D01*
X3327665Y3689294D01*
X2615761D01*
X2594645Y3710409D01*
X2596064Y3715703D01*
Y3724297D01*
X2593840Y3732598D01*
X2599760Y3742344D01*
X2712665D01*
X2720824Y3734186D01*
X2725785Y3730870D01*
X2731638Y3729706D01*
X2838686D01*
X2842180Y3723655D01*
X2848653Y3717182D01*
X2856580Y3712605D01*
X2865421Y3710236D01*
X2874575D01*
X2883416Y3712605D01*
X2891343Y3717182D01*
X2897816Y3723655D01*
X2902393Y3731582D01*
X2904762Y3740423D01*
Y3749577D01*
X2902393Y3758418D01*
X2901785Y3759470D01*
X2907559Y3769470D01*
X3222437D01*
X3228211Y3759470D01*
X3227603Y3758418D01*
X3225234Y3749577D01*
Y3740423D01*
X3227603Y3731582D01*
X3232180Y3723655D01*
X3238653Y3717182D01*
X3246580Y3712605D01*
X3255421Y3710236D01*
X3264575D01*
X3273416Y3712605D01*
X3281343Y3717182D01*
X3287816Y3723655D01*
X3292393Y3731582D01*
X3294762Y3740423D01*
Y3749577D01*
X3292393Y3758418D01*
X3291785Y3759470D01*
X3297559Y3769470D01*
X3367439D01*
X3373213Y3759470D01*
D02*
G37*
G36*
X3621186Y3572186D02*
X3626147Y3568870D01*
X3632000Y3567706D01*
X4685113D01*
X4694957Y3557862D01*
X4688817Y3549860D01*
X4687510Y3550615D01*
X4678608Y3553000D01*
X4669392D01*
X4660490Y3550615D01*
X4652510Y3546007D01*
X4645993Y3539490D01*
X4642415Y3533294D01*
X3638335D01*
X3441079Y3730550D01*
X3441866Y3738186D01*
X3441936Y3738364D01*
X3452427Y3740944D01*
X3621186Y3572186D01*
D02*
G37*
G36*
X4772518Y3444947D02*
X4768691Y3435709D01*
X4730920D01*
X4690553Y3476075D01*
X4690294Y3476869D01*
X4692503Y3488268D01*
X4695490Y3489993D01*
X4702007Y3496510D01*
X4703766Y3499557D01*
X4715589Y3501876D01*
X4772518Y3444947D01*
D02*
G37*
D16*
X4490000Y3819880D02*
X4607000D01*
X3405000Y3745000D02*
X3632000Y3518000D01*
X4674000D01*
X3144606Y3905000D02*
X3215606Y3834000D01*
X3465366D01*
X3479486Y3819880D02*
X4490000D01*
X2731638Y3745000D02*
X2869998D01*
X2719000Y3757638D02*
X2731638Y3745000D01*
X2540000Y3757638D02*
X2719000D01*
X2525788Y3743426D02*
X2540000Y3757638D01*
X2525788Y3612360D02*
Y3743426D01*
Y3612360D02*
X2730000Y3408148D01*
X2505788Y3766182D02*
X2644606Y3905000D01*
X2505788Y3138212D02*
Y3766182D01*
Y3138212D02*
X2643000Y3001000D01*
X4414000D01*
X4490000Y3077000D01*
X2944606Y3905000D02*
X2990606Y3951000D01*
X3480000D01*
X3490000Y3941000D01*
Y3888880D02*
Y3941000D01*
Y3888880D02*
X3519000Y3859880D01*
X3669880D01*
X3690000Y3880000D01*
Y3921000D01*
X3720000Y3951000D01*
X3992000D01*
X2798606D02*
X2844606Y3905000D01*
X2720000Y3951000D02*
X2798606D01*
X2699000Y3930000D02*
X2720000Y3951000D01*
X2699000Y3836000D02*
Y3930000D01*
Y3836000D02*
X2750236Y3784764D01*
X3430236D01*
X3632000Y3583000D01*
X4691448D01*
X4714448Y3560000D01*
Y3524646D02*
Y3560000D01*
Y3524646D02*
X5079094Y3160000D01*
X5235000D01*
X4190000Y3105000D02*
X4340000D01*
X4045000Y3250000D02*
X4190000Y3105000D01*
X4490000Y4490000D02*
X4651574D01*
X5290000Y3851574D01*
X2563426Y3720000D02*
X2609426Y3674000D01*
X3334000D01*
X3405000Y3745000D01*
X3465366Y3834000D02*
X3479486Y3819880D01*
X5280000Y4335000D02*
X5392000D01*
X5402000Y4345000D01*
X5515000D01*
X5453000Y4807000D02*
X5515000Y4745000D01*
X2942606Y4807000D02*
X5453000D01*
X2844606Y4905000D02*
X2942606Y4807000D01*
X4932834Y3520000D02*
X5082834Y3670000D01*
X5355000D01*
X4390000Y3765000D02*
X4530000D01*
X2744606Y3905000D02*
X2844842Y3804764D01*
X3464764D01*
X3469648Y3799880D01*
X4014120D01*
X4088764Y3725236D01*
X4909764D01*
X4965000Y3670000D01*
X3950000Y3105000D02*
Y3420844D01*
X4000000Y3470844D01*
X4674156D01*
X4750000Y3395000D01*
X3544606Y3905000D02*
X3829606Y4190000D01*
X4490000D01*
X3144606Y4905000D02*
X3244606D01*
X3044606D02*
X3144606D01*
X3244606D02*
X3344606D01*
X2944606D02*
X3044606D01*
X3344606D02*
X3444606D01*
X3544606D01*
X2898606Y4951000D02*
X2944606Y4905000D01*
X2690606Y4951000D02*
X2898606D01*
X2644606Y4905000D02*
X2690606Y4951000D01*
X3544606Y4905000D02*
X3590606Y4859000D01*
X3698606D01*
X3744606Y4905000D01*
X3844606D01*
X3344606Y3905000D02*
X3390606Y3859000D01*
X3480366D01*
X3499486Y3839880D01*
X3879486D01*
X3944606Y3905000D01*
X2444606Y4905000D02*
X2544606D01*
X3795000Y3745000D02*
X3890354Y3649646D01*
X4245000D01*
D17*
X4044606Y3905000D02*
D03*
X3944606D02*
D03*
X3844606D02*
D03*
X3744606D02*
D03*
X3644606D02*
D03*
X3544606D02*
D03*
X3444606D02*
D03*
X3344606D02*
D03*
X3244606D02*
D03*
X3144606D02*
D03*
X3044606D02*
D03*
X2944606D02*
D03*
X2844606D02*
D03*
X2744606D02*
D03*
X2644606D02*
D03*
X2544606D02*
D03*
X2444606D02*
D03*
X2344606D02*
D03*
X2244606D02*
D03*
Y4905000D02*
D03*
X2344606D02*
D03*
X2444606D02*
D03*
X2544606D02*
D03*
X2644606D02*
D03*
X2744606D02*
D03*
X2844606D02*
D03*
X2944606D02*
D03*
X3044606D02*
D03*
X3144606D02*
D03*
X3244606D02*
D03*
X3344606D02*
D03*
X3444606D02*
D03*
X3544606D02*
D03*
X3644606D02*
D03*
X3744606D02*
D03*
X3844606D02*
D03*
X3944606D02*
D03*
D18*
X4044606D02*
D03*
D19*
X4435000Y3250000D02*
D03*
X4045000D02*
D03*
X3405000Y3745000D02*
D03*
X3795000D02*
D03*
X3950000Y3105000D02*
D03*
X4340000D02*
D03*
X4110000Y3765000D02*
D03*
Y3375000D02*
D03*
X5355000Y3670000D02*
D03*
X4965000D02*
D03*
X5280000Y4725000D02*
D03*
Y4335000D02*
D03*
X4390000Y3375000D02*
D03*
Y3765000D02*
D03*
X4530000D02*
D03*
Y3375000D02*
D03*
X3259998Y3745000D02*
D03*
X2869998D02*
D03*
D20*
X2429094Y3175000D02*
D03*
X5079094Y3160000D02*
D03*
X4689094Y3155000D02*
D03*
D21*
X2585000Y3175000D02*
D03*
X5235000Y3160000D02*
D03*
X4845000Y3155000D02*
D03*
D22*
X4490000Y3143000D02*
D03*
D23*
Y3077000D02*
D03*
D24*
X2366574Y3720000D02*
D03*
X2563426D02*
D03*
X5290000Y4048426D02*
D03*
Y3851574D02*
D03*
X2730000Y3408148D02*
D03*
Y3605000D02*
D03*
D25*
X4490000Y4590000D02*
D03*
Y4490000D02*
D03*
Y4390000D02*
D03*
Y4290000D02*
D03*
Y4090000D02*
D03*
Y4190000D02*
D03*
X5090000Y4490000D02*
D03*
Y4390000D02*
D03*
Y4290000D02*
D03*
Y4190000D02*
D03*
D26*
X4932834Y3520000D02*
D03*
X5287166D02*
D03*
D27*
X5515000Y4045000D02*
D03*
X5520000Y3035000D02*
D03*
D28*
X5515000Y4145000D02*
D03*
Y4245000D02*
D03*
Y4345000D02*
D03*
Y4445000D02*
D03*
Y4545000D02*
D03*
Y4645000D02*
D03*
Y4745000D02*
D03*
X5520000Y3135000D02*
D03*
Y3235000D02*
D03*
Y3335000D02*
D03*
Y3435000D02*
D03*
Y3535000D02*
D03*
Y3635000D02*
D03*
Y3735000D02*
D03*
D29*
X4245000Y3380354D02*
D03*
Y3649646D02*
D03*
D30*
X4750000Y3395000D02*
D03*
D31*
X4650000D02*
D03*
D32*
X2232204Y3056102D02*
D03*
X5570000Y4900000D02*
D03*
D33*
X4674000Y3518000D02*
D03*
X4490000Y3819880D02*
D03*
X3992000Y3951000D02*
D03*
X4607000Y3819880D02*
D03*
%TF.MD5,5e1441e8d972e6f30ecf8054a55545e0*%
M02*
