%TF.GenerationSoftware,Altium Limited,DefaultClient, ()*%
G04 Layer_Color=65535*
G04 Board_Origin=0|0*
%FSLAX26Y26*%
%MOIN*%
%TF.SameCoordinates,722044AA-65B8-4CCE-AC31-A48EA2AF6ED6*%
%TF.FilePolarity,Positive*%
%TF.FileFunction,Legend,Top*%
%TF.Part,Single*%
G01*
G75*
%TA.AperFunction,NonConductor*%
%ADD34C,0.007874*%
%ADD35C,0.009842*%
%ADD36C,0.006000*%
%ADD37C,0.010000*%
%ADD38C,0.005000*%
%ADD39C,0.005906*%
%ADD40R,0.038662X0.072836*%
D34*
X4053268Y4978622D02*
G03*
X4053268Y4978622I-3937J0D01*
G01*
X5518937Y3956417D02*
G03*
X5518937Y3956417I-3937J0D01*
G01*
X5523937Y2946417D02*
G03*
X5523937Y2946417I-3937J0D01*
G01*
X4592638Y3730748D02*
G03*
X4592638Y3730748I-3937J0D01*
G01*
X4809842Y3395394D02*
G03*
X4809842Y3395394I-3937J0D01*
G01*
X2694095Y3419843D02*
G03*
X2694095Y3419843I-3937J0D01*
G01*
X2352322Y2986024D02*
X2661772D01*
X2401536Y3320670D02*
X2612560D01*
X2401536Y3253740D02*
Y3320670D01*
X2352322Y3253740D02*
X2401536D01*
X2352322Y2986024D02*
Y3253740D01*
X2612560D02*
Y3320670D01*
Y3253740D02*
X2661772D01*
Y2986024D02*
Y3253740D01*
X2651772Y3658346D02*
Y3701654D01*
X2655118Y3715434D02*
X2769292D01*
Y3727244D01*
X2655118D02*
X2769292D01*
X2655118Y3715434D02*
Y3727244D01*
X5026338Y3556418D02*
X5193662D01*
X5026338Y3483582D02*
Y3556418D01*
X5193662Y3483582D02*
Y3556418D01*
X5026338Y3483582D02*
X5193662D01*
X5002322Y2971024D02*
X5311772D01*
X5051536Y3305670D02*
X5262560D01*
X5051536Y3238740D02*
Y3305670D01*
X5002322Y3238740D02*
X5051536D01*
X5002322Y2971024D02*
Y3238740D01*
X5262560D02*
Y3305670D01*
Y3238740D02*
X5311772D01*
Y2971024D02*
Y3238740D01*
X4207402Y3565394D02*
X4282598D01*
X4207402Y3425236D02*
Y3604764D01*
X4282598Y3425236D02*
Y3604764D01*
X4207402Y3425236D02*
X4282598D01*
X4207402Y3604764D02*
X4282598D01*
X4612322Y2966024D02*
X4921772D01*
X4661536Y3300670D02*
X4872560D01*
X4661536Y3233740D02*
Y3300670D01*
X4612322Y3233740D02*
X4661536D01*
X4612322Y2966024D02*
Y3233740D01*
X4872560D02*
Y3300670D01*
Y3233740D02*
X4921772D01*
Y2966024D02*
Y3233740D01*
X2798818Y2975040D02*
Y3204174D01*
X3901182Y2975040D02*
Y3204174D01*
Y3375826D02*
Y3604960D01*
X2798818Y3375826D02*
Y3604960D01*
Y2975040D02*
X3901182D01*
X2798818Y3604960D02*
X3901182D01*
X2662992Y3290000D02*
X2702362D01*
X2682678Y3270316D02*
Y3309686D01*
D35*
X2331653Y3175000D02*
G03*
X2331653Y3175000I-4921J0D01*
G01*
X4981654Y3160000D02*
G03*
X4981654Y3160000I-4921J0D01*
G01*
X4591654Y3155000D02*
G03*
X4591654Y3155000I-4921J0D01*
G01*
D36*
X4523773Y3067815D02*
G03*
X4525222Y3150808I-34096J42104D01*
G01*
X4454778D02*
G03*
X4456227Y3067815I35544J-40889D01*
G01*
D37*
X4490000Y4840000D02*
G03*
X4390000Y4740000I0J-100000D01*
G01*
X5190000D02*
G03*
X5090000Y4840000I-100000J0D01*
G01*
Y3840000D02*
G03*
X5190000Y3940000I0J100000D01*
G01*
X4390000D02*
G03*
X4490000Y3840000I100000J0D01*
G01*
Y4840000D02*
X5090000D01*
X5190000Y3935000D02*
Y4740000D01*
X4390000Y3940000D02*
Y4740000D01*
X4490000Y3840000D02*
X5095000D01*
X4480000Y3925000D02*
Y3958323D01*
X4496661Y3974984D01*
X4513323Y3958323D01*
Y3925000D01*
Y3949992D01*
X4480000D01*
X4563306Y3966653D02*
X4554976Y3974984D01*
X4538314D01*
X4529984Y3966653D01*
Y3933331D01*
X4538314Y3925000D01*
X4554976D01*
X4563306Y3933331D01*
X4613290Y3966653D02*
X4604959Y3974984D01*
X4588298D01*
X4579968Y3966653D01*
Y3933331D01*
X4588298Y3925000D01*
X4604959D01*
X4613290Y3933331D01*
X4663274Y3974984D02*
X4629951D01*
Y3925000D01*
X4663274D01*
X4629951Y3949992D02*
X4646613D01*
X4679935Y3974984D02*
Y3925000D01*
X4713258D01*
X4763242Y3974984D02*
X4729919D01*
Y3925000D01*
X4763242D01*
X4729919Y3949992D02*
X4746580D01*
X4779903Y3925000D02*
Y3974984D01*
X4804895D01*
X4813225Y3966653D01*
Y3949992D01*
X4804895Y3941661D01*
X4779903D01*
X4796564D02*
X4813225Y3925000D01*
X4854878Y3974984D02*
X4838217D01*
X4829887Y3966653D01*
Y3933331D01*
X4838217Y3925000D01*
X4854878D01*
X4863209Y3933331D01*
Y3966653D01*
X4854878Y3974984D01*
X4879870Y3925000D02*
Y3974984D01*
X4896532Y3958323D01*
X4913193Y3974984D01*
Y3925000D01*
X4963177Y3974984D02*
X4929854D01*
Y3925000D01*
X4963177D01*
X4929854Y3949992D02*
X4946516D01*
X4979838Y3974984D02*
X5013161D01*
X4996499D01*
Y3925000D01*
X5063144Y3974984D02*
X5029822D01*
Y3925000D01*
X5063144D01*
X5029822Y3949992D02*
X5046483D01*
X5079806Y3925000D02*
Y3974984D01*
X5104797D01*
X5113128Y3966653D01*
Y3949992D01*
X5104797Y3941661D01*
X5079806D01*
X5096467D02*
X5113128Y3925000D01*
X2779987Y4464981D02*
X2740000D01*
Y4405000D01*
X2779987D01*
X2740000Y4434990D02*
X2759994D01*
X2839968Y4454984D02*
X2829971Y4464981D01*
X2809977D01*
X2799981Y4454984D01*
Y4444987D01*
X2809977Y4434990D01*
X2829971D01*
X2839968Y4424993D01*
Y4414997D01*
X2829971Y4405000D01*
X2809977D01*
X2799981Y4414997D01*
X2859961Y4405000D02*
Y4464981D01*
X2889952D01*
X2899948Y4454984D01*
Y4434990D01*
X2889952Y4424993D01*
X2859961D01*
X2919942Y4434990D02*
X2959929D01*
X2979922Y4454984D02*
X2989919Y4464981D01*
X3009913D01*
X3019910Y4454984D01*
Y4444987D01*
X3009913Y4434990D01*
X2999916D01*
X3009913D01*
X3019910Y4424993D01*
Y4414997D01*
X3009913Y4405000D01*
X2989919D01*
X2979922Y4414997D01*
X3079890Y4405000D02*
X3039903D01*
X3079890Y4444987D01*
Y4454984D01*
X3069893Y4464981D01*
X3049900D01*
X3039903Y4454984D01*
X3159864Y4464981D02*
Y4405000D01*
X3179858Y4424993D01*
X3199851Y4405000D01*
Y4464981D01*
X3219845Y4405000D02*
Y4464981D01*
X3249835D01*
X3259832Y4454984D01*
Y4434990D01*
X3249835Y4424993D01*
X3219845D01*
X3239838D02*
X3259832Y4405000D01*
X3309816Y4464981D02*
X3289822D01*
X3279825Y4454984D01*
Y4414997D01*
X3289822Y4405000D01*
X3309816D01*
X3319812Y4414997D01*
Y4454984D01*
X3309816Y4464981D01*
X3369796D02*
X3349803D01*
X3339806Y4454984D01*
Y4414997D01*
X3349803Y4405000D01*
X3369796D01*
X3379793Y4414997D01*
Y4454984D01*
X3369796Y4464981D01*
X3399787Y4405000D02*
Y4464981D01*
X3419780Y4444987D01*
X3439774Y4464981D01*
Y4405000D01*
X2925000Y3304981D02*
Y3245000D01*
X2954990D01*
X2964987Y3254997D01*
Y3264994D01*
X2954990Y3274990D01*
X2925000D01*
X2954990D01*
X2964987Y3284987D01*
Y3294984D01*
X2954990Y3304981D01*
X2925000D01*
X2984981Y3245000D02*
Y3284987D01*
X3004974Y3304981D01*
X3024968Y3284987D01*
Y3245000D01*
Y3274990D01*
X2984981D01*
X3084948Y3294984D02*
X3074952Y3304981D01*
X3054958D01*
X3044961Y3294984D01*
Y3254997D01*
X3054958Y3245000D01*
X3074952D01*
X3084948Y3254997D01*
X3104942Y3304981D02*
Y3245000D01*
Y3264994D01*
X3144929Y3304981D01*
X3114939Y3274990D01*
X3144929Y3245000D01*
X3164922Y3304981D02*
Y3254997D01*
X3174919Y3245000D01*
X3194913D01*
X3204910Y3254997D01*
Y3304981D01*
X3224903Y3245000D02*
Y3304981D01*
X3254893D01*
X3264890Y3294984D01*
Y3274990D01*
X3254893Y3264994D01*
X3224903D01*
X3344864Y3294984D02*
X3354861Y3304981D01*
X3374854D01*
X3384851Y3294984D01*
Y3284987D01*
X3374854Y3274990D01*
X3364858D01*
X3374854D01*
X3384851Y3264994D01*
Y3254997D01*
X3374854Y3245000D01*
X3354861D01*
X3344864Y3254997D01*
X3404845Y3245000D02*
Y3254997D01*
X3414842D01*
Y3245000D01*
X3404845D01*
X3454829Y3294984D02*
X3464825Y3304981D01*
X3484819D01*
X3494816Y3294984D01*
Y3284987D01*
X3484819Y3274990D01*
X3474822D01*
X3484819D01*
X3494816Y3264994D01*
Y3254997D01*
X3484819Y3245000D01*
X3464825D01*
X3454829Y3254997D01*
X3614777Y3294984D02*
X3604780Y3304981D01*
X3584787D01*
X3574790Y3294984D01*
Y3254997D01*
X3584787Y3245000D01*
X3604780D01*
X3614777Y3254997D01*
X3674758Y3304981D02*
X3634770D01*
Y3245000D01*
X3674758D01*
X3634770Y3274990D02*
X3654764D01*
X3694751Y3304981D02*
Y3245000D01*
X3734738D01*
X3754732Y3304981D02*
Y3245000D01*
X3794719D01*
X2455016Y3005010D02*
Y3064990D01*
X2485006D01*
X2495003Y3054994D01*
Y3035000D01*
X2485006Y3025003D01*
X2455016D01*
X2514997Y3054994D02*
X2524994Y3064990D01*
X2544987D01*
X2554984Y3054994D01*
Y3044997D01*
X2544987Y3035000D01*
X2534990D01*
X2544987D01*
X2554984Y3025003D01*
Y3015006D01*
X2544987Y3005010D01*
X2524994D01*
X2514997Y3015006D01*
X3540016Y3715010D02*
Y3774990D01*
X3570006D01*
X3580003Y3764994D01*
Y3745000D01*
X3570006Y3735003D01*
X3540016D01*
X3560010D02*
X3580003Y3715010D01*
X3629987D02*
Y3774990D01*
X3599997Y3745000D01*
X3639984D01*
X4195065Y2960005D02*
Y2989995D01*
X4210060D01*
X4215058Y2984997D01*
Y2975000D01*
X4210060Y2970002D01*
X4195065D01*
X4205061D02*
X4215058Y2960005D01*
X4225055D02*
X4235052D01*
X4230053D01*
Y2989995D01*
X4225055Y2984997D01*
X4250047D02*
X4255045Y2989995D01*
X4265042D01*
X4270040Y2984997D01*
Y2965003D01*
X4265042Y2960005D01*
X4255045D01*
X4250047Y2965003D01*
Y2984997D01*
X4310028Y2989995D02*
X4330021D01*
X4320024D01*
Y2960005D01*
X4340018Y2989995D02*
Y2960005D01*
Y2975000D01*
X4360011D01*
Y2989995D01*
Y2960005D01*
X4390002Y2989995D02*
X4370008D01*
Y2960005D01*
X4390002D01*
X4370008Y2975000D02*
X4380005D01*
X4399998Y2960005D02*
Y2989995D01*
X4414994D01*
X4419992Y2984997D01*
Y2975000D01*
X4414994Y2970002D01*
X4399998D01*
X4409995D02*
X4419992Y2960005D01*
X4429989D02*
Y2989995D01*
X4439985Y2979998D01*
X4449982Y2989995D01*
Y2960005D01*
X4459979Y2989995D02*
X4469976D01*
X4464977D01*
Y2960005D01*
X4459979D01*
X4469976D01*
X4504964Y2984997D02*
X4499966Y2989995D01*
X4489969D01*
X4484971Y2984997D01*
Y2979998D01*
X4489969Y2975000D01*
X4499966D01*
X4504964Y2970002D01*
Y2965003D01*
X4499966Y2960005D01*
X4489969D01*
X4484971Y2965003D01*
X4514961Y2989995D02*
X4534955D01*
X4524958D01*
Y2960005D01*
X4559947Y2989995D02*
X4549950D01*
X4544952Y2984997D01*
Y2965003D01*
X4549950Y2960005D01*
X4559947D01*
X4564945Y2965003D01*
Y2984997D01*
X4559947Y2989995D01*
X4574942Y2960005D02*
Y2989995D01*
X4589937D01*
X4594935Y2984997D01*
Y2975000D01*
X4589937Y2970002D01*
X4574942D01*
X4584939D02*
X4594935Y2960005D01*
X4360010Y3604984D02*
X4419990D01*
Y3574994D01*
X4409993Y3564997D01*
X4390000D01*
X4380003Y3574994D01*
Y3604984D01*
Y3584990D02*
X4360010Y3564997D01*
X4419990Y3545003D02*
Y3505016D01*
X4409993D01*
X4370007Y3545003D01*
X4360010D01*
X4080010Y3599987D02*
X4139990D01*
Y3569997D01*
X4129993Y3560000D01*
X4110000D01*
X4100003Y3569997D01*
Y3599987D01*
Y3579994D02*
X4080010Y3560000D01*
Y3540006D02*
Y3520013D01*
Y3530010D01*
X4139990D01*
X4129993Y3540006D01*
X3119983Y3774990D02*
Y3715010D01*
X3089992D01*
X3079995Y3725006D01*
Y3745000D01*
X3089992Y3754997D01*
X3119983D01*
X3099989D02*
X3079995Y3774990D01*
X3060002Y3764993D02*
X3050005Y3774990D01*
X3030012D01*
X3020015Y3764993D01*
Y3725006D01*
X3030012Y3715010D01*
X3050005D01*
X3060002Y3725006D01*
Y3735003D01*
X3050005Y3745000D01*
X3020015D01*
X5110016Y3640010D02*
Y3699990D01*
X5140007D01*
X5150003Y3689994D01*
Y3670000D01*
X5140007Y3660003D01*
X5110016D01*
X5130010D02*
X5150003Y3640010D01*
X5209984D02*
X5169997D01*
X5209984Y3679997D01*
Y3689994D01*
X5199987Y3699990D01*
X5179994D01*
X5169997Y3689994D01*
X4185016Y3220010D02*
Y3279990D01*
X4215007D01*
X4225003Y3269994D01*
Y3250000D01*
X4215007Y3240003D01*
X4185016D01*
X4205010D02*
X4225003Y3220010D01*
X4284984Y3279990D02*
X4264990Y3269994D01*
X4244997Y3250000D01*
Y3230006D01*
X4254994Y3220010D01*
X4274987D01*
X4284984Y3230006D01*
Y3240003D01*
X4274987Y3250000D01*
X4244997D01*
X4500010Y3609984D02*
X4559990D01*
Y3579994D01*
X4549993Y3569997D01*
X4530000D01*
X4520003Y3579994D01*
Y3609984D01*
Y3589990D02*
X4500010Y3569997D01*
X4549993Y3550003D02*
X4559990Y3540006D01*
Y3520013D01*
X4549993Y3510016D01*
X4539997D01*
X4530000Y3520013D01*
X4520003Y3510016D01*
X4510007D01*
X4500010Y3520013D01*
Y3540006D01*
X4510007Y3550003D01*
X4520003D01*
X4530000Y3540006D01*
X4539997Y3550003D01*
X4549993D01*
X4530000Y3540006D02*
Y3520013D01*
X4095016Y3075010D02*
Y3134990D01*
X4125007D01*
X4135003Y3124994D01*
Y3105000D01*
X4125007Y3095003D01*
X4095016D01*
X4115010D02*
X4135003Y3075010D01*
X4194984Y3134990D02*
X4154997D01*
Y3105000D01*
X4174990Y3114997D01*
X4184987D01*
X4194984Y3105000D01*
Y3085006D01*
X4184987Y3075010D01*
X4164994D01*
X4154997Y3085006D01*
X5255010Y4569984D02*
X5314990D01*
Y4539993D01*
X5304993Y4529997D01*
X5285000D01*
X5275003Y4539993D01*
Y4569984D01*
Y4549990D02*
X5255010Y4529997D01*
X5304993Y4510003D02*
X5314990Y4500006D01*
Y4480013D01*
X5304993Y4470016D01*
X5294997D01*
X5285000Y4480013D01*
Y4490010D01*
Y4480013D01*
X5275003Y4470016D01*
X5265007D01*
X5255010Y4480013D01*
Y4500006D01*
X5265007Y4510003D01*
X2555882Y3846732D02*
Y3796748D01*
X2565879Y3786751D01*
X2585872D01*
X2595869Y3796748D01*
Y3846732D01*
X2615863Y3836735D02*
X2625859Y3846732D01*
X2645853D01*
X2655850Y3836735D01*
Y3826738D01*
X2645853Y3816742D01*
X2635856D01*
X2645853D01*
X2655850Y3806745D01*
Y3796748D01*
X2645853Y3786751D01*
X2625859D01*
X2615863Y3796748D01*
X4710013Y3669990D02*
Y3620006D01*
X4720010Y3610010D01*
X4740003D01*
X4750000Y3620006D01*
Y3669990D01*
X4769994Y3610010D02*
X4789987D01*
X4779990D01*
Y3669990D01*
X4769994Y3659994D01*
X2854403Y3695003D02*
X2814416D01*
X2804419Y3685006D01*
Y3665013D01*
X2814416Y3655016D01*
X2854403D01*
X2864400Y3665013D01*
Y3685006D01*
X2844406Y3675010D02*
X2864400Y3695003D01*
Y3685006D02*
X2854403Y3695003D01*
X2864400Y3754984D02*
Y3714997D01*
X2824413Y3754984D01*
X2814416D01*
X2804419Y3744987D01*
Y3724994D01*
X2814416Y3714997D01*
X4763513Y3296503D02*
Y3256516D01*
X4773510Y3246519D01*
X4793503D01*
X4803500Y3256516D01*
Y3296503D01*
X4793503Y3306500D01*
X4773510D01*
X4783507Y3286506D02*
X4763513Y3306500D01*
X4773510D02*
X4763513Y3296503D01*
X4743519Y3306500D02*
X4723526D01*
X4733523D01*
Y3246519D01*
X4743519Y3256516D01*
X4730016Y2995010D02*
Y3054990D01*
X4760007D01*
X4770003Y3044994D01*
Y3025000D01*
X4760007Y3015003D01*
X4730016D01*
X4829984Y2995010D02*
X4789997D01*
X4829984Y3034997D01*
Y3044994D01*
X4819987Y3054990D01*
X4799994D01*
X4789997Y3044994D01*
X5125013Y3005010D02*
Y3064990D01*
X5155003D01*
X5165000Y3054994D01*
Y3035000D01*
X5155003Y3025003D01*
X5125013D01*
X5184994Y3005010D02*
X5204987D01*
X5194990D01*
Y3064990D01*
X5184994Y3054994D01*
X5431487Y3894481D02*
X5411493D01*
X5421490D01*
Y3844497D01*
X5411493Y3834500D01*
X5401497D01*
X5391500Y3844497D01*
X5491468Y3834500D02*
X5451481D01*
X5491468Y3874487D01*
Y3884484D01*
X5481471Y3894481D01*
X5461477D01*
X5451481Y3884484D01*
X5426487Y4904481D02*
X5406493D01*
X5416490D01*
Y4854497D01*
X5406493Y4844500D01*
X5396497D01*
X5386500Y4854497D01*
X5446481Y4844500D02*
X5466474D01*
X5456477D01*
Y4904481D01*
X5446481Y4894484D01*
X2425016Y3839990D02*
Y3780010D01*
X2455006D01*
X2465003Y3790006D01*
Y3829994D01*
X2455006Y3839990D01*
X2425016D01*
X2484997Y3829994D02*
X2494994Y3839990D01*
X2514987D01*
X2524984Y3829994D01*
Y3819997D01*
X2514987Y3810000D01*
X2504990D01*
X2514987D01*
X2524984Y3800003D01*
Y3790006D01*
X2514987Y3780010D01*
X2494994D01*
X2484997Y3790006D01*
X4190016Y3749990D02*
Y3690010D01*
X4220007D01*
X4230003Y3700006D01*
Y3739994D01*
X4220007Y3749990D01*
X4190016D01*
X4289984Y3690010D02*
X4249997D01*
X4289984Y3729997D01*
Y3739994D01*
X4279987Y3749990D01*
X4259994D01*
X4249997Y3739994D01*
X5050013Y3549990D02*
Y3490010D01*
X5080003D01*
X5090000Y3500006D01*
Y3539994D01*
X5080003Y3549990D01*
X5050013D01*
X5109994Y3490010D02*
X5129987D01*
X5119990D01*
Y3549990D01*
X5109994Y3539994D01*
X2450003Y3734994D02*
X2440006Y3744990D01*
X2420013D01*
X2410016Y3734994D01*
Y3695006D01*
X2420013Y3685010D01*
X2440006D01*
X2450003Y3695006D01*
X2509984Y3685010D02*
X2469997D01*
X2509984Y3724997D01*
Y3734994D01*
X2499987Y3744990D01*
X2479994D01*
X2469997Y3734994D01*
X2749994Y3519997D02*
X2759990Y3529994D01*
Y3549987D01*
X2749994Y3559984D01*
X2710006D01*
X2700010Y3549987D01*
Y3529994D01*
X2710006Y3519997D01*
X2749994Y3500003D02*
X2759990Y3490006D01*
Y3470013D01*
X2749994Y3460016D01*
X2739997D01*
X2730000Y3470013D01*
Y3480010D01*
Y3470013D01*
X2720003Y3460016D01*
X2710006D01*
X2700010Y3470013D01*
Y3490006D01*
X2710006Y3500003D01*
X5314993Y3955000D02*
X5324990Y3964997D01*
Y3984990D01*
X5314993Y3994987D01*
X5275007D01*
X5265010Y3984990D01*
Y3964997D01*
X5275007Y3955000D01*
X5265010Y3935006D02*
Y3915013D01*
Y3925010D01*
X5324990D01*
X5314993Y3935006D01*
X3984990Y3549977D02*
X3925010D01*
Y3519987D01*
X3935006Y3509990D01*
X3945003D01*
X3955000Y3519987D01*
Y3549977D01*
Y3519987D01*
X3964997Y3509990D01*
X3974994D01*
X3984990Y3519987D01*
Y3549977D01*
Y3489997D02*
Y3450010D01*
Y3470003D01*
X3925010D01*
Y3430016D02*
Y3410023D01*
Y3420019D01*
X3984990D01*
X3974994Y3430016D01*
X5174968Y3755010D02*
Y3814990D01*
X5144977D01*
X5134980Y3804993D01*
Y3794997D01*
X5144977Y3785000D01*
X5174968D01*
X5144977D01*
X5134980Y3775003D01*
Y3765006D01*
X5144977Y3755010D01*
X5174968D01*
X5114987Y3814990D02*
Y3755010D01*
X5075000Y3814990D01*
Y3755010D01*
X5025016D02*
X5045010D01*
X5055006Y3765006D01*
Y3804993D01*
X5045010Y3814990D01*
X5025016D01*
X5015019Y3804993D01*
Y3765006D01*
X5025016Y3755010D01*
X4995026Y3814990D02*
X4975032D01*
X4985029D01*
Y3755010D01*
X4995026Y3765006D01*
X4438481Y4976500D02*
X4388497D01*
X4378500Y4966503D01*
Y4946510D01*
X4388497Y4936513D01*
X4438481D01*
X4378500Y4876532D02*
Y4916519D01*
X4418487Y4876532D01*
X4428484D01*
X4438481Y4886529D01*
Y4906523D01*
X4428484Y4916519D01*
D38*
X2196182Y3855788D02*
Y4245158D01*
X2160748D02*
X2196182D01*
X2160748D02*
Y4565236D01*
X2196182D01*
Y4954212D01*
X4093818Y4050670D02*
X4337914D01*
Y4759330D01*
X4093818D02*
X4337914D01*
X4093818D02*
Y4954212D01*
Y3855788D02*
Y4050670D01*
X2196182Y3855788D02*
X4093818D01*
X2196182Y4954212D02*
X4093818D01*
X4110000Y3250000D02*
Y3300000D01*
Y3200000D02*
Y3250000D01*
Y3200000D02*
X4180000D01*
X4080000Y3250000D02*
X4110000D01*
Y3300000D02*
X4180000D01*
X4370000Y3250000D02*
X4400000D01*
X4300000Y3200000D02*
X4370000D01*
X4300000Y3300000D02*
X4370000D01*
Y3200000D02*
Y3250000D01*
Y3300000D01*
X3730000Y3745000D02*
Y3795000D01*
Y3695000D02*
Y3745000D01*
X3660000Y3795000D02*
X3730000D01*
X3660000Y3695000D02*
X3730000D01*
Y3745000D02*
X3760000D01*
X3470000Y3795000D02*
X3540000D01*
X3440000Y3745000D02*
X3470000D01*
Y3695000D02*
X3540000D01*
X3470000D02*
Y3745000D01*
Y3795000D01*
X4275000Y3055000D02*
Y3105000D01*
Y3155000D01*
X4205000D02*
X4275000D01*
Y3105000D02*
X4305000D01*
X4205000Y3055000D02*
X4275000D01*
X3985000Y3105000D02*
X4015000D01*
Y3155000D02*
X4085000D01*
X4015000Y3055000D02*
X4085000D01*
X4015000Y3105000D02*
Y3155000D01*
Y3055000D02*
Y3105000D01*
X2386260Y3670788D02*
X2543740D01*
X2386260Y3769212D02*
X2543740D01*
X2386260Y3755434D02*
Y3769212D01*
Y3670788D02*
Y3684566D01*
X2543740Y3755434D02*
Y3769212D01*
Y3670788D02*
Y3684566D01*
X4110000Y3440000D02*
X4160000D01*
X4060000D02*
X4110000D01*
X4160000D02*
Y3510000D01*
X4060000Y3440000D02*
Y3510000D01*
X4110000Y3410000D02*
Y3440000D01*
X4160000Y3630000D02*
Y3700000D01*
X4110000D02*
Y3730000D01*
X4060000Y3630000D02*
Y3700000D01*
X4110000D01*
X4160000D01*
X5030000Y3620000D02*
Y3670000D01*
Y3720000D01*
Y3620000D02*
X5100000D01*
X5030000Y3720000D02*
X5100000D01*
X5000000Y3670000D02*
X5030000D01*
X5220000Y3620000D02*
X5290000D01*
Y3670000D02*
X5320000D01*
X5220000Y3720000D02*
X5290000D01*
Y3670000D02*
Y3720000D01*
Y3620000D02*
Y3670000D01*
X5280000Y4400000D02*
X5330000D01*
X5230000D02*
X5280000D01*
X5330000D02*
Y4470000D01*
X5230000Y4400000D02*
Y4470000D01*
X5280000Y4370000D02*
Y4400000D01*
X5330000Y4590000D02*
Y4660000D01*
X5280000D02*
Y4690000D01*
X5230000Y4590000D02*
Y4660000D01*
X5280000D01*
X5330000D01*
X4340000Y3700000D02*
X4390000D01*
X4440000D01*
X4340000Y3630000D02*
Y3700000D01*
X4440000Y3630000D02*
Y3700000D01*
X4390000D02*
Y3730000D01*
X4340000Y3440000D02*
Y3510000D01*
X4390000Y3410000D02*
Y3440000D01*
X4440000D02*
Y3510000D01*
X4390000Y3440000D02*
X4440000D01*
X4340000D02*
X4390000D01*
X4530000D02*
X4580000D01*
X4480000D02*
X4530000D01*
X4580000D02*
Y3510000D01*
X4480000Y3440000D02*
Y3510000D01*
X4530000Y3410000D02*
Y3440000D01*
X4580000Y3630000D02*
Y3700000D01*
X4530000D02*
Y3730000D01*
X4480000Y3630000D02*
Y3700000D01*
X4530000D01*
X4580000D01*
X2934998Y3695000D02*
Y3745000D01*
Y3795000D01*
Y3695000D02*
X3004998D01*
X2934998Y3795000D02*
X3004998D01*
X2904998Y3745000D02*
X2934998D01*
X3124998Y3695000D02*
X3194998D01*
Y3745000D02*
X3224998D01*
X3124998Y3795000D02*
X3194998D01*
Y3745000D02*
Y3795000D01*
Y3695000D02*
Y3745000D01*
X5240788Y3871260D02*
Y4028740D01*
X5339212Y3871260D02*
Y4028740D01*
X5325434D02*
X5339212D01*
X5240788D02*
X5254566D01*
X5325434Y3871260D02*
X5339212D01*
X5240788D02*
X5254566D01*
X5387048Y3985944D02*
Y4804056D01*
X5642952D01*
Y3985944D02*
Y4804056D01*
X5387048Y3985944D02*
X5642952D01*
X5392048Y2975944D02*
Y3794056D01*
X5647952D01*
Y2975944D02*
Y3794056D01*
X5392048Y2975944D02*
X5647952D01*
X4670984Y3540590D02*
X4824528D01*
X4670984Y3739410D02*
X4824528D01*
X4655512Y3347756D02*
X4764960D01*
X4655512Y3442244D02*
X4764960D01*
X2424312Y3381948D02*
X2562304D01*
X2424312D02*
Y3638052D01*
X2562304D01*
Y3381948D02*
Y3638052D01*
X2779212Y3427834D02*
Y3585314D01*
X2680788Y3427834D02*
Y3585314D01*
Y3427834D02*
X2694566D01*
X2765434D02*
X2779212D01*
X2680788Y3585314D02*
X2694566D01*
X2765434D02*
X2779212D01*
D39*
X2602126Y3725432D02*
X2617874D01*
D40*
X5174331Y3520000D02*
D03*
%TF.MD5,4e844af1be926d98edb189115853eb5f*%
M02*
