%TF.GenerationSoftware,Altium Limited,DefaultClient, ()*%
G04 Layer_Color=32896*
G04 Board_Origin=0|0*
%FSLAX26Y26*%
%MOIN*%
%TF.SameCoordinates,722044AA-65B8-4CCE-AC31-A48EA2AF6ED6*%
%TF.FilePolarity,Positive*%
%TF.FileFunction,Legend,Bot*%
%TF.Part,Single*%
G01*
G75*
%TA.AperFunction,NonConductor*%
%ADD37C,0.010000*%
%ADD41C,0.019685*%
G36*
X5304864Y4640148D02*
X5308431Y4639938D01*
X5310390Y4639798D01*
X5311928Y4639658D01*
X5313187Y4639518D01*
X5315006Y4639238D01*
X5316125Y4638959D01*
X5316894Y4638749D01*
X5317873Y4638609D01*
X5318433Y4638469D01*
X5321580Y4637980D01*
X5322139Y4637840D01*
X5323748Y4637350D01*
X5324867Y4637070D01*
X5327035Y4636581D01*
X5328154Y4636161D01*
X5329063Y4635811D01*
X5329973Y4635602D01*
X5330672Y4635462D01*
X5331231Y4635322D01*
X5331931Y4635042D01*
X5333400Y4634413D01*
X5334309Y4634203D01*
X5334868Y4634063D01*
X5335568Y4633783D01*
X5337316Y4633014D01*
X5338086Y4632804D01*
X5338645Y4632664D01*
X5339344Y4632384D01*
X5339554Y4632175D01*
X5340953Y4631615D01*
X5341862Y4631405D01*
X5342702Y4630986D01*
X5343611Y4630496D01*
X5344590Y4630216D01*
X5345289Y4629936D01*
X5345569Y4629797D01*
X5346408Y4629237D01*
X5347737Y4628748D01*
X5348856Y4628048D01*
X5349625Y4627699D01*
X5350325Y4627419D01*
X5351304Y4626859D01*
X5351584Y4626579D01*
X5352283Y4626300D01*
X5353542Y4625600D01*
X5353822Y4625321D01*
X5354101Y4625181D01*
X5355920Y4624202D01*
X5356340Y4623782D01*
X5357039Y4623502D01*
X5357738Y4623083D01*
X5358158Y4622663D01*
X5358438Y4622523D01*
X5359697Y4621824D01*
X5359976Y4621544D01*
X5360256Y4621404D01*
X5360676Y4620984D01*
X5361935Y4620285D01*
X5362494Y4619725D01*
X5362774Y4619586D01*
X5363753Y4618886D01*
X5364033Y4618606D01*
X5364313Y4618467D01*
X5364592Y4618187D01*
X5365572Y4617627D01*
X5366271Y4616928D01*
X5366551Y4616788D01*
X5367320Y4616159D01*
X5367810Y4615669D01*
X5368089Y4615529D01*
X5368859Y4614900D01*
X5369208Y4614550D01*
X5369488Y4614410D01*
X5369768Y4614130D01*
X5370048Y4613990D01*
X5370817Y4613361D01*
X5371306Y4612871D01*
X5371586Y4612731D01*
X5371866Y4612452D01*
X5372146Y4612312D01*
X5373125Y4611333D01*
X5373405Y4611193D01*
X5374174Y4610563D01*
X5374314Y4610284D01*
X5374803Y4609934D01*
X5375573Y4609305D01*
X5375713Y4609025D01*
X5376202Y4608675D01*
X5376971Y4608046D01*
X5377111Y4607766D01*
X5377321Y4607556D01*
X5377601Y4607416D01*
X5379000Y4606017D01*
X5379279Y4605877D01*
X5379629Y4605528D01*
X5379769Y4605248D01*
X5380119Y4604898D01*
X5380399Y4604758D01*
X5381028Y4604129D01*
X5381168Y4603849D01*
X5381658Y4603360D01*
X5381937Y4603220D01*
X5382147Y4603010D01*
X5382287Y4602730D01*
X5383826Y4601192D01*
X5383965Y4600912D01*
X5384455Y4600562D01*
X5384805Y4600212D01*
X5384945Y4599933D01*
X5386064Y4598814D01*
X5386203Y4598534D01*
X5386833Y4597765D01*
X5387183Y4597555D01*
X5387323Y4597275D01*
X5387602Y4596995D01*
X5387742Y4596716D01*
X5388581Y4595876D01*
X5388721Y4595596D01*
X5389001Y4595317D01*
X5389141Y4595037D01*
X5389421Y4594757D01*
X5389561Y4594477D01*
X5390260Y4593778D01*
X5390400Y4593498D01*
X5391029Y4592729D01*
X5391519Y4592239D01*
X5391939Y4591540D01*
X5392568Y4590771D01*
X5392778Y4590561D01*
X5393337Y4589582D01*
X5393757Y4589162D01*
X5393897Y4588882D01*
X5394176Y4588603D01*
X5394876Y4587344D01*
X5395435Y4586784D01*
X5396135Y4585525D01*
X5396834Y4584546D01*
X5397534Y4583287D01*
X5398233Y4582308D01*
X5398583Y4581399D01*
X5398792Y4581189D01*
X5398932Y4580909D01*
X5399492Y4580070D01*
X5399842Y4579161D01*
X5400541Y4578042D01*
X5401660Y4575804D01*
X5402289Y4574755D01*
X5402499Y4573985D01*
X5403338Y4572587D01*
X5404038Y4570768D01*
X5404947Y4569020D01*
X5405437Y4567691D01*
X5406066Y4566642D01*
X5406836Y4564474D01*
X5407605Y4562725D01*
X5407745Y4562166D01*
X5408094Y4561257D01*
X5408374Y4560557D01*
X5408584Y4560347D01*
X5408724Y4559788D01*
X5408864Y4559368D01*
X5409144Y4558389D01*
X5409353Y4557620D01*
X5410123Y4555731D01*
X5410262Y4555172D01*
X5410472Y4554263D01*
X5410752Y4553144D01*
X5411172Y4552025D01*
X5411521Y4550836D01*
X5411661Y4550276D01*
X5411871Y4549087D01*
X5412011Y4548388D01*
X5412291Y4547269D01*
X5412780Y4545660D01*
X5412920Y4545101D01*
X5413410Y4541813D01*
X5413550Y4541114D01*
X5413969Y4539435D01*
X5414109Y4538736D01*
X5414249Y4537897D01*
X5414389Y4536638D01*
X5414669Y4533840D01*
X5414809Y4532721D01*
X5415088Y4530903D01*
X5415298Y4529015D01*
X5415438Y4528455D01*
X5415578Y4524538D01*
X5415718Y4523140D01*
X5415578Y4502718D01*
X5415438Y4502298D01*
X5415298Y4499640D01*
X5415158Y4499221D01*
X5414948Y4497472D01*
X5414809Y4496633D01*
X5414669Y4495514D01*
X5414529Y4494255D01*
X5414249Y4491457D01*
X5414109Y4490618D01*
X5413829Y4489219D01*
X5413620Y4488450D01*
X5413410Y4487541D01*
X5413060Y4484673D01*
X5412920Y4484114D01*
X5412710Y4482785D01*
X5412501Y4482016D01*
X5412081Y4480617D01*
X5411801Y4478938D01*
X5411661Y4478379D01*
X5411312Y4476770D01*
X5410892Y4475651D01*
X5410472Y4473973D01*
X5410332Y4473133D01*
X5410193Y4472434D01*
X5410053Y4471874D01*
X5409493Y4470476D01*
X5409283Y4469706D01*
X5409144Y4469147D01*
X5408794Y4467678D01*
X5408374Y4466559D01*
X5408024Y4465650D01*
X5407605Y4463971D01*
X5407115Y4462642D01*
X5406766Y4461873D01*
X5406486Y4460894D01*
X5406346Y4460334D01*
X5405856Y4459006D01*
X5405646Y4458796D01*
X5405367Y4458096D01*
X5405087Y4457117D01*
X5404597Y4455788D01*
X5403828Y4454180D01*
X5403618Y4453411D01*
X5403269Y4452501D01*
X5402569Y4451382D01*
X5402359Y4450613D01*
X5402220Y4450053D01*
X5401170Y4448025D01*
X5400681Y4446696D01*
X5400121Y4445857D01*
X5399772Y4444948D01*
X5399492Y4444249D01*
X5398932Y4443269D01*
X5398233Y4441731D01*
X5397534Y4440472D01*
X5396834Y4438933D01*
X5396275Y4437954D01*
X5395995Y4437674D01*
X5395435Y4436275D01*
X5395296Y4435996D01*
X5394596Y4435017D01*
X5394316Y4434317D01*
X5393617Y4433058D01*
X5393057Y4432219D01*
X5392708Y4431310D01*
X5391659Y4429841D01*
X5391519Y4429282D01*
X5390889Y4428512D01*
X5390260Y4427463D01*
X5389561Y4426204D01*
X5389141Y4425785D01*
X5388302Y4424246D01*
X5388022Y4423966D01*
X5387882Y4423686D01*
X5387183Y4422428D01*
X5386553Y4421658D01*
X5385924Y4420469D01*
X5385504Y4420050D01*
X5385364Y4419770D01*
X5385084Y4419490D01*
X5384385Y4418231D01*
X5383826Y4417672D01*
X5383126Y4416413D01*
X5382707Y4415993D01*
X5382567Y4415713D01*
X5382007Y4414874D01*
X5381867Y4414595D01*
X5381308Y4414035D01*
X5381168Y4413755D01*
X5380468Y4412776D01*
X5380329Y4412496D01*
X5379629Y4411797D01*
X5379070Y4410818D01*
X5378370Y4410118D01*
X5377811Y4409139D01*
X5377111Y4408440D01*
X5376971Y4408160D01*
X5376202Y4407111D01*
X5375992Y4407041D01*
X5375852Y4406761D01*
X5375573Y4406481D01*
X5375433Y4406202D01*
X5374803Y4405432D01*
X5374314Y4404943D01*
X5374174Y4404663D01*
X5373894Y4404383D01*
X5373754Y4404104D01*
X5372915Y4403264D01*
X5372775Y4402985D01*
X5372495Y4402705D01*
X5372356Y4402425D01*
X5371376Y4401446D01*
X5371236Y4401166D01*
X5370118Y4400047D01*
X5369978Y4399767D01*
X5368719Y4398508D01*
X5368579Y4398229D01*
X5367320Y4396970D01*
X5367180Y4396690D01*
X5366830Y4396340D01*
X5366551Y4396200D01*
X5366341Y4395991D01*
X5366201Y4395711D01*
X5364802Y4394312D01*
X5364662Y4394032D01*
X5364313Y4393683D01*
X5364033Y4393543D01*
X5363543Y4393053D01*
X5363403Y4392774D01*
X5354941Y4384311D01*
X5354661Y4384171D01*
X5353122Y4382632D01*
X5352913Y4382562D01*
X5352773Y4382283D01*
X5352283Y4381793D01*
X5352003Y4381653D01*
X5350744Y4380394D01*
X5350465Y4380254D01*
X5349346Y4379135D01*
X5349066Y4378995D01*
X5347807Y4377737D01*
X5347527Y4377597D01*
X5346548Y4376618D01*
X5346268Y4376478D01*
X5345989Y4376198D01*
X5345709Y4376058D01*
X5344730Y4375079D01*
X5344450Y4374939D01*
X5343681Y4374310D01*
X5343191Y4373820D01*
X5342911Y4373680D01*
X5342142Y4373051D01*
X5341512Y4372421D01*
X5341233Y4372281D01*
X5340463Y4371652D01*
X5339974Y4371162D01*
X5339694Y4371023D01*
X5338925Y4370393D01*
X5338575Y4370043D01*
X5338295Y4369904D01*
X5336547Y4368575D01*
X5336337Y4368365D01*
X5335638Y4367945D01*
X5335078Y4367386D01*
X5334798Y4367246D01*
X5333539Y4366267D01*
X5332560Y4365567D01*
X5331861Y4365148D01*
X5331092Y4364518D01*
X5329693Y4363679D01*
X5329203Y4363189D01*
X5327944Y4362490D01*
X5327665Y4362210D01*
X5327385Y4362070D01*
X5327105Y4361791D01*
X5325846Y4361091D01*
X5325566Y4360811D01*
X5325287Y4360672D01*
X5324447Y4360112D01*
X5323748Y4359692D01*
X5323468Y4359413D01*
X5323189Y4359273D01*
X5321930Y4358573D01*
X5321160Y4357944D01*
X5319272Y4356895D01*
X5318992Y4356615D01*
X5318712Y4356475D01*
X5317174Y4355636D01*
X5316754Y4355216D01*
X5316055Y4354936D01*
X5315076Y4354377D01*
X5314796Y4354097D01*
X5314516Y4353957D01*
X5312418Y4352838D01*
X5312138Y4352559D01*
X5311159Y4352139D01*
X5310180Y4351579D01*
X5309900Y4351300D01*
X5308921Y4350880D01*
X5307662Y4350181D01*
X5307382Y4349901D01*
X5306683Y4349621D01*
X5305774Y4349271D01*
X5305284Y4348922D01*
X5304445Y4348362D01*
X5303885Y4348222D01*
X5302347Y4347383D01*
X5301088Y4346824D01*
X5300388Y4346544D01*
X5300109Y4346404D01*
X5299130Y4345705D01*
X5298360Y4345495D01*
X5297451Y4345145D01*
X5296332Y4344446D01*
X5294164Y4343676D01*
X5293954Y4343467D01*
X5292695Y4342907D01*
X5291926Y4342697D01*
X5291226Y4342417D01*
X5290037Y4341788D01*
X5289058Y4341508D01*
X5287729Y4341019D01*
X5285981Y4340249D01*
X5285212Y4340039D01*
X5284652Y4339900D01*
X5283533Y4339480D01*
X5282344Y4338990D01*
X5280036Y4338501D01*
X5278498Y4337941D01*
X5277378Y4337662D01*
X5276539Y4337522D01*
X5274721Y4337242D01*
X5274021Y4337102D01*
X5273462Y4336962D01*
X5272693Y4336752D01*
X5271713Y4336473D01*
X5270385Y4336263D01*
X5269126Y4336123D01*
X5267587Y4335983D01*
X5266188Y4335843D01*
X5264650Y4335703D01*
X5261992Y4335563D01*
X5256607Y4335493D01*
X5255977Y4335843D01*
X5255837Y4336403D01*
X5255977Y4336962D01*
X5256467Y4337452D01*
X5257166Y4337871D01*
X5257865Y4338571D01*
X5258145Y4338711D01*
X5258915Y4339480D01*
X5259055Y4339760D01*
X5259264Y4339970D01*
X5259544Y4340109D01*
X5260313Y4340879D01*
X5260453Y4341159D01*
X5260943Y4341508D01*
X5264090Y4344655D01*
X5264230Y4344935D01*
X5264859Y4345565D01*
X5265139Y4345705D01*
X5265489Y4346194D01*
X5266888Y4347593D01*
X5267028Y4347873D01*
X5269266Y4350111D01*
X5269405Y4350391D01*
X5270664Y4351649D01*
X5270804Y4351929D01*
X5271923Y4353048D01*
X5272063Y4353328D01*
X5273182Y4354447D01*
X5273322Y4354727D01*
X5274441Y4355846D01*
X5274581Y4356126D01*
X5275420Y4356965D01*
X5275560Y4357244D01*
X5276259Y4357944D01*
X5276399Y4358224D01*
X5277518Y4359343D01*
X5277658Y4359622D01*
X5278777Y4360742D01*
X5278917Y4361021D01*
X5279197Y4361301D01*
X5279267Y4361511D01*
X5279547Y4361651D01*
X5279896Y4362000D01*
X5280036Y4362280D01*
X5280316Y4362560D01*
X5280456Y4362840D01*
X5281295Y4363679D01*
X5281435Y4363959D01*
X5281715Y4364238D01*
X5281855Y4364518D01*
X5282694Y4365357D01*
X5282834Y4365637D01*
X5283533Y4366337D01*
X5283673Y4366616D01*
X5284093Y4367036D01*
X5284233Y4367316D01*
X5284862Y4368085D01*
X5285212Y4368435D01*
X5285351Y4368715D01*
X5286331Y4369973D01*
X5286750Y4370393D01*
X5286890Y4370673D01*
X5287520Y4371442D01*
X5287869Y4371792D01*
X5288009Y4372072D01*
X5288988Y4373331D01*
X5289688Y4374310D01*
X5289828Y4374589D01*
X5290387Y4375149D01*
X5290527Y4375429D01*
X5290807Y4375708D01*
X5291226Y4376408D01*
X5291856Y4377177D01*
X5292066Y4377387D01*
X5292625Y4378366D01*
X5293185Y4378926D01*
X5293324Y4379205D01*
X5294234Y4380534D01*
X5294583Y4380884D01*
X5294723Y4381164D01*
X5295632Y4382493D01*
X5295842Y4382702D01*
X5295982Y4382982D01*
X5296542Y4383961D01*
X5297171Y4384730D01*
X5297801Y4385780D01*
X5297940Y4386059D01*
X5298220Y4386339D01*
X5298360Y4386619D01*
X5298640Y4386899D01*
X5299479Y4388437D01*
X5300179Y4389416D01*
X5300318Y4389976D01*
X5300598Y4390256D01*
X5300738Y4390535D01*
X5301018Y4390815D01*
X5301158Y4391095D01*
X5301997Y4392634D01*
X5302277Y4392913D01*
X5302417Y4393193D01*
X5303396Y4395012D01*
X5303815Y4395431D01*
X5303955Y4395711D01*
X5304934Y4397529D01*
X5305214Y4397809D01*
X5305634Y4398788D01*
X5306193Y4399767D01*
X5306473Y4400047D01*
X5307033Y4401306D01*
X5307592Y4402285D01*
X5307872Y4402565D01*
X5308292Y4403544D01*
X5308991Y4404803D01*
X5311788Y4410118D01*
X5312348Y4411377D01*
X5313187Y4412916D01*
X5313607Y4413895D01*
X5313887Y4414595D01*
X5314446Y4415574D01*
X5315006Y4416833D01*
X5315285Y4417532D01*
X5316404Y4419910D01*
X5316754Y4420819D01*
X5317383Y4421868D01*
X5318153Y4424036D01*
X5318782Y4425085D01*
X5318992Y4425855D01*
X5319552Y4427393D01*
X5319761Y4427603D01*
X5320181Y4428582D01*
X5320321Y4429142D01*
X5320811Y4430471D01*
X5321580Y4432219D01*
X5321720Y4432779D01*
X5322209Y4434107D01*
X5322839Y4435576D01*
X5322979Y4436136D01*
X5323398Y4437534D01*
X5323958Y4438793D01*
X5324238Y4439773D01*
X5324517Y4440891D01*
X5325007Y4442220D01*
X5325357Y4443130D01*
X5325776Y4444808D01*
X5325986Y4445717D01*
X5326126Y4446277D01*
X5326615Y4447466D01*
X5326895Y4448445D01*
X5327385Y4450753D01*
X5327665Y4451452D01*
X5328154Y4453061D01*
X5328294Y4453620D01*
X5328504Y4454949D01*
X5328644Y4455649D01*
X5328784Y4456208D01*
X5329273Y4457817D01*
X5329413Y4458376D01*
X5329553Y4459355D01*
X5329693Y4459915D01*
X5329903Y4461244D01*
X5330042Y4462083D01*
X5330322Y4463202D01*
X5330532Y4463971D01*
X5330812Y4465090D01*
X5331092Y4467468D01*
X5331231Y4468028D01*
X5331441Y4469357D01*
X5331861Y4471455D01*
X5332001Y4472014D01*
X5332141Y4472714D01*
X5332350Y4474602D01*
X5332490Y4475581D01*
X5332700Y4477749D01*
X5332840Y4478868D01*
X5333120Y4480687D01*
X5333260Y4481806D01*
X5333470Y4483694D01*
X5333609Y4485093D01*
X5333889Y4492367D01*
X5334029Y4494185D01*
X5333889Y4509152D01*
X5333749Y4509572D01*
X5333609Y4513628D01*
X5333470Y4514048D01*
X5333260Y4516216D01*
X5332980Y4518034D01*
X5332770Y4519922D01*
X5332630Y4520482D01*
X5332420Y4522790D01*
X5332280Y4523909D01*
X5332001Y4525588D01*
X5331861Y4526147D01*
X5331721Y4526846D01*
X5331441Y4527966D01*
X5331301Y4528665D01*
X5330882Y4531462D01*
X5330742Y4532302D01*
X5330602Y4532861D01*
X5330252Y4534050D01*
X5329973Y4535169D01*
X5329833Y4536148D01*
Y4536288D01*
X5329763Y4536358D01*
X5329623Y4537058D01*
X5329483Y4537897D01*
X5329063Y4539016D01*
X5328714Y4540205D01*
X5328574Y4540764D01*
X5328084Y4543072D01*
X5327665Y4544191D01*
X5327315Y4545101D01*
X5327105Y4546010D01*
X5326965Y4546709D01*
X5326685Y4547828D01*
X5326196Y4549017D01*
X5325776Y4550416D01*
X5325566Y4551325D01*
X5325147Y4552444D01*
X5324517Y4553913D01*
X5324307Y4554822D01*
X5323888Y4555941D01*
X5323538Y4556571D01*
X5323258Y4557270D01*
X5322979Y4558389D01*
X5321999Y4560487D01*
X5321720Y4561186D01*
X5321510Y4561956D01*
X5320601Y4563704D01*
X5319971Y4565453D01*
X5319342Y4566502D01*
X5319062Y4567201D01*
X5318852Y4567971D01*
X5317663Y4570139D01*
X5317453Y4570908D01*
X5316894Y4571747D01*
X5315705Y4574195D01*
X5315145Y4575034D01*
X5314656Y4576363D01*
X5314166Y4576853D01*
X5314026Y4577133D01*
X5313467Y4578391D01*
X5313327Y4578671D01*
X5312348Y4580070D01*
X5312208Y4580630D01*
X5311509Y4581609D01*
X5310949Y4582448D01*
X5310390Y4583427D01*
X5309690Y4584406D01*
X5309341Y4585315D01*
X5308711Y4585945D01*
X5308571Y4586225D01*
X5308012Y4587204D01*
X5307382Y4587973D01*
X5306333Y4589722D01*
X5305914Y4590141D01*
X5305774Y4590421D01*
X5305214Y4591400D01*
X5304655Y4591960D01*
X5304515Y4592239D01*
X5303955Y4593219D01*
X5303676Y4593498D01*
X5303606Y4593708D01*
X5303396Y4593778D01*
X5303256Y4594058D01*
X5302976Y4594338D01*
X5302556Y4595037D01*
X5301927Y4595806D01*
X5301717Y4596016D01*
X5301577Y4596296D01*
X5299619Y4598814D01*
X5298990Y4599583D01*
X5298430Y4600422D01*
X5297661Y4601192D01*
X5297521Y4601471D01*
X5297241Y4601751D01*
X5297101Y4602031D01*
X5296262Y4602870D01*
X5296122Y4603150D01*
X5295143Y4604129D01*
X5295003Y4604409D01*
X5294723Y4604689D01*
X5294583Y4604968D01*
X5293464Y4606087D01*
X5293324Y4606367D01*
X5292206Y4607486D01*
X5292066Y4607766D01*
X5290667Y4609165D01*
X5290527Y4609444D01*
X5287869Y4612102D01*
X5287729Y4612382D01*
X5287240Y4612731D01*
X5286750Y4613221D01*
X5286610Y4613501D01*
X5286261Y4613851D01*
X5285981Y4613990D01*
X5285212Y4614760D01*
X5285072Y4615039D01*
X5284582Y4615389D01*
X5283813Y4616159D01*
X5283673Y4616438D01*
X5283183Y4616788D01*
X5282064Y4617907D01*
X5281785Y4618047D01*
X5280386Y4619446D01*
X5280106Y4619586D01*
X5278847Y4620845D01*
X5278567Y4620984D01*
X5277448Y4622103D01*
X5277169Y4622243D01*
X5276050Y4623362D01*
X5275770Y4623502D01*
X5275350Y4623922D01*
X5275070Y4624062D01*
X5274231Y4624901D01*
X5273952Y4625041D01*
X5272972Y4626020D01*
X5272693Y4626160D01*
X5271923Y4626789D01*
X5271434Y4627279D01*
X5271154Y4627419D01*
X5270385Y4628048D01*
X5269895Y4628538D01*
X5269615Y4628678D01*
X5269336Y4628957D01*
X5269056Y4629097D01*
X5268217Y4629936D01*
X5267937Y4630076D01*
X5266678Y4631056D01*
X5265838Y4631615D01*
X5265559Y4631755D01*
X5265349Y4631965D01*
X5265279Y4632454D01*
X5265489Y4632944D01*
X5265978Y4633434D01*
X5267517Y4634133D01*
X5268496Y4634413D01*
X5269405Y4634762D01*
X5270874Y4635392D01*
X5271783Y4635602D01*
X5272902Y4635881D01*
X5274301Y4636441D01*
X5275070Y4636651D01*
X5276190Y4636930D01*
X5277798Y4637280D01*
X5278358Y4637420D01*
X5280386Y4638049D01*
X5280945Y4638189D01*
X5282414Y4638399D01*
X5284093Y4638679D01*
X5286331Y4639238D01*
X5287170Y4639378D01*
X5289058Y4639588D01*
X5290037Y4639728D01*
X5292485Y4639938D01*
X5294024Y4640078D01*
X5295842Y4640218D01*
X5304445Y4640288D01*
X5304864Y4640148D01*
D02*
G37*
G36*
X5207789Y4640567D02*
X5211146Y4640427D01*
X5211566Y4640288D01*
X5214433Y4639938D01*
X5215692Y4639798D01*
X5217091Y4639658D01*
X5219329Y4639378D01*
X5220728Y4639099D01*
X5221497Y4638889D01*
X5222616Y4638609D01*
X5223595Y4638469D01*
X5224155Y4638329D01*
X5225344Y4638119D01*
X5226043Y4637980D01*
X5226603Y4637840D01*
X5227302Y4637560D01*
X5228491Y4637210D01*
X5229610Y4636930D01*
X5230519Y4636721D01*
X5231079Y4636581D01*
X5231778Y4636301D01*
X5232548Y4635951D01*
X5233317Y4635742D01*
X5234016Y4635602D01*
X5235135Y4635322D01*
X5235835Y4635042D01*
X5236464Y4634692D01*
X5237863Y4634273D01*
X5238422Y4634133D01*
X5239332Y4633783D01*
X5239542Y4633573D01*
X5240521Y4633154D01*
X5241500Y4632874D01*
X5242409Y4632524D01*
X5242619Y4632315D01*
X5242899Y4632175D01*
X5244158Y4631615D01*
X5245067Y4631265D01*
X5245276Y4631056D01*
X5245556Y4630916D01*
X5245836Y4630636D01*
X5246535Y4630356D01*
X5247445Y4630007D01*
X5248284Y4629447D01*
X5248494Y4629237D01*
X5249193Y4628957D01*
X5250452Y4628258D01*
X5250732Y4627978D01*
X5251011Y4627838D01*
X5252550Y4626999D01*
X5252970Y4626579D01*
X5253249Y4626440D01*
X5254508Y4625740D01*
X5255068Y4625181D01*
X5256327Y4624481D01*
X5256607Y4624202D01*
X5256886Y4624062D01*
X5257306Y4623642D01*
X5258285Y4623083D01*
X5258984Y4622383D01*
X5259964Y4621824D01*
X5260523Y4621264D01*
X5260803Y4621124D01*
X5261083Y4620845D01*
X5261782Y4620425D01*
X5262342Y4619865D01*
X5262621Y4619725D01*
X5262901Y4619446D01*
X5263600Y4619026D01*
X5264440Y4618187D01*
X5265139Y4617767D01*
X5265978Y4616928D01*
X5266258Y4616788D01*
X5267028Y4616159D01*
X5267797Y4615389D01*
X5268077Y4615249D01*
X5269196Y4614130D01*
X5269475Y4613990D01*
X5271154Y4612312D01*
X5271434Y4612172D01*
X5274301Y4609305D01*
X5274441Y4609025D01*
X5277518Y4605948D01*
X5277658Y4605668D01*
X5278917Y4604409D01*
X5279057Y4604129D01*
X5280176Y4603010D01*
X5280316Y4602730D01*
X5280596Y4602450D01*
X5280666Y4602241D01*
X5280945Y4602101D01*
X5281155Y4601891D01*
X5281295Y4601611D01*
X5281575Y4601332D01*
X5281715Y4601052D01*
X5282694Y4600073D01*
X5282834Y4599793D01*
X5283463Y4599024D01*
X5283953Y4598534D01*
X5284093Y4598254D01*
X5284722Y4597485D01*
X5285212Y4596995D01*
X5285351Y4596716D01*
X5286331Y4595457D01*
X5286750Y4595037D01*
X5286890Y4594757D01*
X5287520Y4593988D01*
X5287869Y4593638D01*
X5288009Y4593359D01*
X5288918Y4592030D01*
X5289408Y4591540D01*
X5289967Y4590561D01*
X5290387Y4590141D01*
X5290527Y4589861D01*
X5290807Y4589582D01*
X5291366Y4588603D01*
X5291786Y4588183D01*
X5291926Y4587903D01*
X5292485Y4586924D01*
X5293115Y4586155D01*
X5293324Y4585945D01*
X5294164Y4584406D01*
X5294583Y4583987D01*
X5295423Y4582448D01*
X5296122Y4581469D01*
X5296822Y4580210D01*
X5297521Y4579231D01*
X5297871Y4578322D01*
X5298220Y4577832D01*
X5298780Y4576993D01*
X5299759Y4575174D01*
X5300458Y4573636D01*
X5300598Y4573356D01*
X5301577Y4571817D01*
X5301787Y4571048D01*
X5302626Y4569649D01*
X5303326Y4567831D01*
X5304025Y4566712D01*
X5304585Y4565173D01*
X5304864Y4564474D01*
X5305354Y4563565D01*
X5305634Y4562865D01*
X5305844Y4562096D01*
X5306123Y4561396D01*
X5306893Y4559648D01*
X5307033Y4559088D01*
X5307522Y4557760D01*
X5308152Y4556291D01*
X5308292Y4555731D01*
X5308501Y4554962D01*
X5308641Y4554403D01*
X5308921Y4553703D01*
X5309271Y4552934D01*
X5309550Y4551955D01*
X5309690Y4551395D01*
X5309900Y4550486D01*
X5310320Y4549367D01*
X5310600Y4548667D01*
X5310879Y4547548D01*
X5311159Y4546150D01*
X5311299Y4545590D01*
X5311858Y4544051D01*
X5312068Y4543282D01*
X5312208Y4542723D01*
X5312837Y4539855D01*
X5313257Y4538736D01*
X5313537Y4537617D01*
X5313817Y4535939D01*
X5314096Y4534400D01*
X5314236Y4533700D01*
X5314446Y4532931D01*
X5314726Y4531952D01*
X5314866Y4531392D01*
X5315076Y4529644D01*
X5315495Y4526846D01*
X5315635Y4526287D01*
X5316055Y4524189D01*
X5316265Y4522301D01*
X5316404Y4520482D01*
X5316544Y4519083D01*
X5316754Y4516495D01*
X5317034Y4513698D01*
X5317174Y4512439D01*
X5317314Y4510481D01*
X5317453Y4507823D01*
X5317523Y4492087D01*
X5317383Y4491667D01*
X5317244Y4487191D01*
X5317104Y4486771D01*
X5316894Y4484044D01*
X5316614Y4480687D01*
X5316474Y4478868D01*
X5316334Y4477190D01*
X5316195Y4475651D01*
X5316055Y4474532D01*
X5315775Y4472993D01*
X5315495Y4471595D01*
X5315145Y4468727D01*
X5315006Y4467748D01*
X5314796Y4466140D01*
X5314656Y4465300D01*
X5314446Y4464531D01*
X5314166Y4463412D01*
X5313887Y4461733D01*
X5313747Y4460334D01*
X5313607Y4459775D01*
X5313397Y4458586D01*
X5313187Y4457817D01*
X5312628Y4455998D01*
X5312488Y4455019D01*
X5312348Y4454460D01*
X5312138Y4453271D01*
X5311998Y4452711D01*
X5311369Y4450683D01*
X5311089Y4449564D01*
X5310879Y4448235D01*
X5310600Y4447116D01*
X5310180Y4445997D01*
X5310040Y4445438D01*
X5309830Y4444668D01*
X5309341Y4442360D01*
X5308781Y4440962D01*
X5308571Y4440192D01*
X5308361Y4439283D01*
X5308221Y4438583D01*
X5307942Y4437465D01*
X5307662Y4436765D01*
X5307312Y4435856D01*
X5307033Y4434877D01*
X5306823Y4433968D01*
X5306683Y4433408D01*
X5306403Y4432709D01*
X5306193Y4432499D01*
X5306053Y4431939D01*
X5305774Y4431240D01*
X5305564Y4430191D01*
X5305074Y4428862D01*
X5304515Y4427603D01*
X5304235Y4426484D01*
X5303885Y4425575D01*
X5303116Y4423826D01*
X5302976Y4423267D01*
X5302556Y4422148D01*
X5301857Y4420609D01*
X5301577Y4419630D01*
X5301228Y4418721D01*
X5300598Y4417672D01*
X5300318Y4416693D01*
X5299969Y4415783D01*
X5299339Y4414595D01*
X5299060Y4413895D01*
X5298920Y4413336D01*
X5297661Y4410678D01*
X5297311Y4409769D01*
X5296612Y4408650D01*
X5296052Y4407111D01*
X5295842Y4406621D01*
X5295143Y4405642D01*
X5294933Y4404873D01*
X5294653Y4404174D01*
X5294094Y4403334D01*
X5293884Y4403124D01*
X5293395Y4401796D01*
X5292905Y4401026D01*
X5292485Y4400327D01*
X5292206Y4399627D01*
X5291506Y4398369D01*
X5291087Y4397669D01*
X5290807Y4396970D01*
X5290247Y4395991D01*
X5289967Y4395711D01*
X5289408Y4394452D01*
X5288988Y4393753D01*
X5288709Y4393473D01*
X5288009Y4391934D01*
X5287869Y4391654D01*
X5287240Y4390885D01*
X5286890Y4390116D01*
X5286191Y4388857D01*
X5285771Y4388437D01*
X5285491Y4387738D01*
X5284932Y4386759D01*
X5284652Y4386479D01*
X5284512Y4386199D01*
X5283673Y4384661D01*
X5283253Y4384241D01*
X5283114Y4383961D01*
X5282414Y4382702D01*
X5281785Y4381933D01*
X5281155Y4380744D01*
X5280526Y4379975D01*
X5280176Y4379345D01*
X5280036Y4379065D01*
X5279057Y4377807D01*
X5278498Y4376827D01*
X5277868Y4376058D01*
X5277658Y4375848D01*
X5277099Y4374869D01*
X5276469Y4374100D01*
X5275840Y4373051D01*
X5275700Y4372771D01*
X5275001Y4372072D01*
X5274441Y4371092D01*
X5273882Y4370533D01*
X5273742Y4370253D01*
X5273042Y4369274D01*
X5272902Y4368994D01*
X5272203Y4368295D01*
X5271644Y4367316D01*
X5270804Y4366476D01*
X5270385Y4365777D01*
X5269825Y4365218D01*
X5269685Y4364938D01*
X5269056Y4364168D01*
X5268846Y4363959D01*
X5268706Y4363679D01*
X5268146Y4363119D01*
X5268007Y4362840D01*
X5267727Y4362560D01*
X5267587Y4362280D01*
X5266748Y4361441D01*
X5266608Y4361161D01*
X5266328Y4360881D01*
X5266188Y4360602D01*
X5265699Y4360252D01*
X5265139Y4359413D01*
X5264090Y4358364D01*
X5263950Y4358084D01*
X5262831Y4356965D01*
X5262691Y4356685D01*
X5261432Y4355426D01*
X5261292Y4355146D01*
X5260173Y4354027D01*
X5260034Y4353748D01*
X5253949Y4347663D01*
X5253739Y4347593D01*
X5253599Y4347313D01*
X5253110Y4346824D01*
X5252830Y4346684D01*
X5251431Y4345285D01*
X5251151Y4345145D01*
X5249892Y4343886D01*
X5249613Y4343746D01*
X5249263Y4343257D01*
X5248913Y4342907D01*
X5248633Y4342767D01*
X5247515Y4341648D01*
X5247235Y4341508D01*
X5246955Y4341229D01*
X5246675Y4341089D01*
X5246116Y4340389D01*
X5245836Y4340249D01*
X5245067Y4339620D01*
X5244437Y4338990D01*
X5244158Y4338851D01*
X5243878Y4338571D01*
X5243598Y4338431D01*
X5242899Y4337731D01*
X5242619Y4337592D01*
X5241360Y4336613D01*
X5241080Y4336333D01*
X5240101Y4335773D01*
X5239332Y4335144D01*
X5239122Y4334934D01*
X5237583Y4334095D01*
X5236744Y4333535D01*
X5235835Y4333185D01*
X5234086Y4332276D01*
X5233527Y4332136D01*
X5231848Y4331857D01*
X5228911Y4331997D01*
X5228491Y4332136D01*
X5227022Y4332486D01*
X5226323Y4332766D01*
X5225414Y4333116D01*
X5223735Y4333535D01*
X5223036Y4333815D01*
X5221217Y4334654D01*
X5220448Y4334864D01*
X5219329Y4335284D01*
X5219119Y4335493D01*
X5218140Y4335913D01*
X5217581Y4336053D01*
X5216671Y4336403D01*
X5216182Y4336613D01*
X5215343Y4337172D01*
X5214573Y4337382D01*
X5213175Y4337941D01*
X5212825Y4338291D01*
X5212125Y4338571D01*
X5210797Y4339060D01*
X5208768Y4340109D01*
X5207859Y4340459D01*
X5207649Y4340669D01*
X5207370Y4340809D01*
X5204712Y4342208D01*
X5204012Y4342627D01*
X5203313Y4342907D01*
X5202334Y4343467D01*
X5201495Y4344026D01*
X5200586Y4344376D01*
X5199816Y4344865D01*
X5198977Y4345425D01*
X5198417Y4345565D01*
X5197088Y4346474D01*
X5195690Y4347173D01*
X5194850Y4347733D01*
X5192962Y4348782D01*
X5192682Y4349062D01*
X5192403Y4349202D01*
X5190584Y4350181D01*
X5190165Y4350600D01*
X5188626Y4351440D01*
X5188346Y4351719D01*
X5188066Y4351859D01*
X5186528Y4352699D01*
X5185968Y4353258D01*
X5184430Y4354097D01*
X5184010Y4354517D01*
X5183730Y4354657D01*
X5182471Y4355356D01*
X5182052Y4355776D01*
X5181772Y4355916D01*
X5180793Y4356475D01*
X5180023Y4357105D01*
X5178974Y4357734D01*
X5178695Y4357874D01*
X5178135Y4358434D01*
X5177855Y4358573D01*
X5176526Y4359483D01*
X5176037Y4359832D01*
X5175757Y4360112D01*
X5174498Y4360811D01*
X5173939Y4361371D01*
X5172960Y4361930D01*
X5172190Y4362560D01*
X5171980Y4362770D01*
X5171701Y4362910D01*
X5170442Y4363889D01*
X5169463Y4364588D01*
X5169183Y4364728D01*
X5168484Y4365427D01*
X5168204Y4365567D01*
X5167434Y4366197D01*
X5166945Y4366546D01*
X5166665Y4366826D01*
X5166385Y4366966D01*
X5165616Y4367596D01*
X5165266Y4367945D01*
X5164986Y4368085D01*
X5164707Y4368365D01*
X5164427Y4368505D01*
X5163658Y4369134D01*
X5163168Y4369624D01*
X5162888Y4369764D01*
X5162119Y4370393D01*
X5161630Y4370883D01*
X5161350Y4371023D01*
X5161070Y4371302D01*
X5160790Y4371442D01*
X5159951Y4372281D01*
X5159671Y4372421D01*
X5159252Y4372841D01*
X5158972Y4372981D01*
X5158832Y4373261D01*
X5158552Y4373400D01*
X5158132Y4373820D01*
X5157853Y4373960D01*
X5156874Y4374939D01*
X5156594Y4375079D01*
X5155755Y4375918D01*
X5155475Y4376058D01*
X5154775Y4376757D01*
X5154496Y4376897D01*
X5153517Y4377877D01*
X5153237Y4378016D01*
X5152118Y4379135D01*
X5151838Y4379275D01*
X5150579Y4380534D01*
X5150299Y4380674D01*
X5147921Y4383052D01*
X5147642Y4383192D01*
X5146872Y4383961D01*
X5146802Y4384171D01*
X5146523Y4384311D01*
X5144984Y4385850D01*
X5144704Y4385989D01*
X5144494Y4386199D01*
X5144355Y4386479D01*
X5143725Y4387109D01*
X5143445Y4387248D01*
X5142956Y4387738D01*
X5142816Y4388018D01*
X5142606Y4388227D01*
X5142326Y4388367D01*
X5138899Y4391794D01*
X5138759Y4392074D01*
X5138550Y4392284D01*
X5138270Y4392424D01*
X5137780Y4392913D01*
X5137640Y4393193D01*
X5135123Y4395711D01*
X5134983Y4395991D01*
X5133724Y4397250D01*
X5133584Y4397529D01*
X5132325Y4398788D01*
X5132185Y4399068D01*
X5130926Y4400327D01*
X5130786Y4400607D01*
X5129667Y4401726D01*
X5129528Y4402006D01*
X5128688Y4402845D01*
X5128548Y4403124D01*
X5128129Y4403544D01*
X5127989Y4403824D01*
X5127150Y4404663D01*
X5127010Y4404943D01*
X5126730Y4405223D01*
X5126590Y4405502D01*
X5125751Y4406342D01*
X5125611Y4406621D01*
X5124981Y4407391D01*
X5124632Y4407740D01*
X5124492Y4408020D01*
X5123513Y4409279D01*
X5123233Y4409559D01*
X5123093Y4409839D01*
X5122114Y4411097D01*
X5121415Y4412077D01*
X5121275Y4412356D01*
X5120855Y4412776D01*
X5120715Y4413056D01*
X5120435Y4413336D01*
X5119876Y4414315D01*
X5119456Y4414734D01*
X5119316Y4415014D01*
X5119037Y4415294D01*
X5118477Y4416273D01*
X5117918Y4416833D01*
X5117778Y4417112D01*
X5117218Y4418091D01*
X5116659Y4418651D01*
X5116519Y4418931D01*
X5115610Y4420260D01*
X5115260Y4420749D01*
X5114561Y4422008D01*
X5114001Y4422568D01*
X5113162Y4424106D01*
X5112183Y4425505D01*
X5111623Y4426484D01*
X5111343Y4426764D01*
X5111203Y4427044D01*
X5110364Y4428582D01*
X5109945Y4429002D01*
X5108826Y4431100D01*
X5108266Y4431939D01*
X5108126Y4432499D01*
X5107217Y4433828D01*
X5106867Y4434597D01*
X5106518Y4435506D01*
X5106168Y4435856D01*
X5106028Y4436136D01*
X5105329Y4437674D01*
X5105189Y4437954D01*
X5104629Y4438793D01*
X5104210Y4439773D01*
X5103930Y4440472D01*
X5103370Y4441451D01*
X5102811Y4442710D01*
X5102461Y4443619D01*
X5101692Y4445088D01*
X5101202Y4446417D01*
X5100922Y4447116D01*
X5100713Y4447326D01*
X5100293Y4448305D01*
X5099664Y4450053D01*
X5099174Y4450963D01*
X5098894Y4451662D01*
X5098684Y4452431D01*
X5098125Y4453830D01*
X5097495Y4455299D01*
X5097286Y4456208D01*
X5097006Y4456908D01*
X5096656Y4457677D01*
X5096376Y4458376D01*
X5096097Y4459495D01*
X5095607Y4460824D01*
X5095257Y4461593D01*
X5094978Y4462293D01*
X5094768Y4463202D01*
X5094558Y4463971D01*
X5094208Y4464881D01*
X5093859Y4465650D01*
X5093579Y4466629D01*
X5093439Y4467189D01*
X5093229Y4468098D01*
X5092810Y4469217D01*
X5092460Y4470126D01*
X5092320Y4470685D01*
X5091970Y4472294D01*
X5091690Y4473413D01*
X5091271Y4474532D01*
X5091061Y4475301D01*
X5090851Y4476211D01*
X5090572Y4478029D01*
X5090432Y4478589D01*
X5090292Y4479288D01*
X5089942Y4480477D01*
X5089662Y4481596D01*
X5089453Y4482925D01*
X5089313Y4484044D01*
X5089033Y4485722D01*
X5088473Y4488520D01*
X5088333Y4489359D01*
X5088194Y4490478D01*
X5088054Y4491877D01*
X5087774Y4494395D01*
X5087634Y4495794D01*
X5087354Y4497472D01*
X5087214Y4498591D01*
X5087074Y4500130D01*
X5086935Y4501529D01*
X5086795Y4504046D01*
X5086655Y4507543D01*
X5086585Y4523000D01*
X5086725Y4523419D01*
X5086865Y4529015D01*
X5087005Y4529434D01*
X5087145Y4531113D01*
X5087284Y4531532D01*
X5087494Y4533001D01*
X5087634Y4533700D01*
X5087774Y4534540D01*
X5088194Y4537897D01*
X5088473Y4539575D01*
X5089033Y4541813D01*
X5089313Y4543492D01*
X5089592Y4545310D01*
X5089732Y4546010D01*
X5089872Y4546569D01*
X5090152Y4547269D01*
X5090432Y4548388D01*
X5090572Y4549087D01*
X5090711Y4549647D01*
X5090851Y4550486D01*
X5091131Y4551605D01*
X5091411Y4552304D01*
X5091621Y4552934D01*
X5091900Y4553913D01*
X5092180Y4555032D01*
X5092390Y4555941D01*
X5092670Y4556641D01*
X5093159Y4557829D01*
X5093369Y4558739D01*
X5093649Y4559858D01*
X5093929Y4560557D01*
X5094558Y4562026D01*
X5094698Y4562585D01*
X5095327Y4564334D01*
X5095677Y4564963D01*
X5095957Y4565663D01*
X5096236Y4566642D01*
X5097356Y4569020D01*
X5097495Y4569579D01*
X5098754Y4572237D01*
X5099034Y4572936D01*
X5099594Y4573915D01*
X5100293Y4575454D01*
X5100992Y4576713D01*
X5101692Y4578252D01*
X5101832Y4578531D01*
X5102531Y4579511D01*
X5102811Y4580210D01*
X5103510Y4581469D01*
X5104070Y4582308D01*
X5104419Y4583217D01*
X5104629Y4583427D01*
X5104769Y4583707D01*
X5105049Y4583987D01*
X5105189Y4584266D01*
X5106028Y4585805D01*
X5106448Y4586225D01*
X5107427Y4588043D01*
X5107846Y4588463D01*
X5107986Y4588743D01*
X5108546Y4589722D01*
X5108965Y4590141D01*
X5109105Y4590421D01*
X5109385Y4590701D01*
X5109945Y4591680D01*
X5110364Y4592100D01*
X5110504Y4592379D01*
X5110784Y4592659D01*
X5111203Y4593359D01*
X5111833Y4594128D01*
X5112043Y4594338D01*
X5112183Y4594617D01*
X5112812Y4595387D01*
X5113162Y4595736D01*
X5113302Y4596016D01*
X5113581Y4596296D01*
X5113721Y4596576D01*
X5114141Y4596995D01*
X5114281Y4597275D01*
X5114840Y4597834D01*
X5114980Y4598114D01*
X5115610Y4598884D01*
X5116239Y4599513D01*
X5116379Y4599793D01*
X5116659Y4600073D01*
X5116799Y4600352D01*
X5117638Y4601192D01*
X5117778Y4601471D01*
X5119176Y4602870D01*
X5119316Y4603150D01*
X5120156Y4603849D01*
X5120435Y4604129D01*
X5120575Y4604409D01*
X5121415Y4605108D01*
X5123583Y4607276D01*
X5123862Y4607416D01*
X5125121Y4608675D01*
X5125401Y4608815D01*
X5126380Y4609794D01*
X5126660Y4609934D01*
X5127080Y4610354D01*
X5127359Y4610493D01*
X5128338Y4611473D01*
X5128618Y4611613D01*
X5129318Y4612312D01*
X5129597Y4612452D01*
X5130017Y4612871D01*
X5130297Y4613011D01*
X5131136Y4613851D01*
X5131416Y4613990D01*
X5131696Y4614270D01*
X5131975Y4614410D01*
X5132815Y4615249D01*
X5133794Y4615809D01*
X5134493Y4616508D01*
X5134773Y4616648D01*
X5136032Y4617627D01*
X5136312Y4617907D01*
X5137291Y4618467D01*
X5137850Y4619026D01*
X5138130Y4619166D01*
X5138969Y4619725D01*
X5139249Y4619865D01*
X5140018Y4620495D01*
X5141767Y4621544D01*
X5142047Y4621824D01*
X5142326Y4621963D01*
X5143585Y4622663D01*
X5144564Y4623362D01*
X5145264Y4623642D01*
X5146243Y4624202D01*
X5146523Y4624481D01*
X5146802Y4624621D01*
X5147782Y4625041D01*
X5148481Y4625460D01*
X5149320Y4626020D01*
X5150020Y4626300D01*
X5151279Y4626999D01*
X5152537Y4627559D01*
X5153447Y4627908D01*
X5154496Y4628538D01*
X5154775Y4628678D01*
X5154915D01*
X5155615Y4628957D01*
X5156524Y4629307D01*
X5157573Y4629936D01*
X5158552Y4630216D01*
X5159881Y4630706D01*
X5160930Y4631335D01*
X5161699Y4631545D01*
X5163238Y4632105D01*
X5163868Y4632454D01*
X5164567Y4632734D01*
X5165686Y4633014D01*
X5166385Y4633294D01*
X5167924Y4633993D01*
X5168484Y4634133D01*
X5169463Y4634413D01*
X5170372Y4634762D01*
X5171841Y4635392D01*
X5172750Y4635602D01*
X5173869Y4635881D01*
X5174988Y4636301D01*
X5175897Y4636651D01*
X5177016Y4636930D01*
X5179184Y4637420D01*
X5179744Y4637560D01*
X5181352Y4638049D01*
X5184709Y4638609D01*
X5186668Y4639168D01*
X5187227Y4639308D01*
X5189185Y4639588D01*
X5190584Y4639728D01*
X5192403Y4639868D01*
X5193382Y4640008D01*
X5195410Y4640218D01*
X5196529Y4640357D01*
X5198068Y4640497D01*
X5200306Y4640637D01*
X5207370Y4640707D01*
X5207789Y4640567D01*
D02*
G37*
G36*
X5134913Y4722536D02*
X5134493Y4723655D01*
X5134144Y4724424D01*
X5133724Y4725823D01*
X5133444Y4726942D01*
X5133164Y4727641D01*
X5132745Y4728620D01*
X5132325Y4730299D01*
X5131975Y4731768D01*
X5131696Y4732467D01*
X5131206Y4734076D01*
X5130926Y4735754D01*
X5130786Y4736314D01*
X5130577Y4737223D01*
X5130297Y4737922D01*
X5130087Y4738692D01*
X5129947Y4739251D01*
X5129737Y4740440D01*
X5129458Y4742119D01*
X5129318Y4742818D01*
X5129108Y4743587D01*
X5128688Y4744986D01*
X5128408Y4746665D01*
X5127989Y4749602D01*
X5127849Y4750162D01*
X5127569Y4751141D01*
X5127709Y4752400D01*
X5128338Y4753029D01*
X5129318Y4753169D01*
X5130996Y4753029D01*
X5131416Y4752889D01*
X5134703Y4752679D01*
X5136661Y4752539D01*
X5139039Y4752400D01*
X5140858Y4752260D01*
X5142117Y4752120D01*
X5142956Y4751980D01*
X5143655Y4751840D01*
X5146173Y4751421D01*
X5148061Y4751211D01*
X5148621Y4751071D01*
X5150229Y4750861D01*
X5151069Y4750721D01*
X5152188Y4750441D01*
X5153377Y4750092D01*
X5154356Y4749952D01*
X5154915Y4749812D01*
X5156244Y4749602D01*
X5156944Y4749462D01*
X5157503Y4749322D01*
X5159531Y4748693D01*
X5160091Y4748553D01*
X5161280Y4748343D01*
X5161979Y4748203D01*
X5162748Y4747993D01*
X5163728Y4747574D01*
X5165126Y4747154D01*
X5166595Y4746805D01*
X5167294Y4746525D01*
X5168064Y4746175D01*
X5169463Y4745756D01*
X5170022Y4745616D01*
X5171351Y4745126D01*
X5172820Y4744497D01*
X5173379Y4744357D01*
X5175128Y4743727D01*
X5175337Y4743517D01*
X5176037Y4743238D01*
X5176596Y4743098D01*
X5177576Y4742818D01*
X5179674Y4741839D01*
X5180233Y4741699D01*
X5181142Y4741349D01*
X5182891Y4740440D01*
X5184220Y4739950D01*
X5184430Y4739741D01*
X5184709Y4739601D01*
X5186248Y4738901D01*
X5187227Y4738342D01*
X5188066Y4737782D01*
X5188836Y4737573D01*
X5189955Y4736873D01*
X5190864Y4736384D01*
X5191563Y4736104D01*
X5191843Y4735964D01*
X5192123Y4735684D01*
X5192403Y4735544D01*
X5192682Y4735265D01*
X5193382Y4734985D01*
X5194361Y4734425D01*
X5194641Y4734146D01*
X5194920Y4734006D01*
X5196459Y4733166D01*
X5196739Y4732887D01*
X5197019Y4732747D01*
X5197298Y4732467D01*
X5198557Y4731768D01*
X5198977Y4731348D01*
X5199257Y4731208D01*
X5200236Y4730649D01*
X5201005Y4730019D01*
X5201215Y4729809D01*
X5202194Y4729250D01*
X5202894Y4728551D01*
X5203173Y4728411D01*
X5204432Y4727431D01*
X5204712Y4727152D01*
X5204992Y4727012D01*
X5206251Y4726033D01*
X5206810Y4725473D01*
X5207090Y4725333D01*
X5207929Y4724494D01*
X5208209Y4724354D01*
X5208489Y4724074D01*
X5208768Y4723935D01*
X5209748Y4722955D01*
X5210027Y4722815D01*
X5211286Y4721557D01*
X5211566Y4721417D01*
X5216112Y4716871D01*
X5216252Y4716591D01*
X5218210Y4714633D01*
X5218350Y4714353D01*
X5218630Y4714073D01*
X5218770Y4713793D01*
X5219749Y4712814D01*
X5219889Y4712534D01*
X5220728Y4711695D01*
X5220868Y4711415D01*
X5221497Y4710646D01*
X5221987Y4710157D01*
X5222127Y4709877D01*
X5223106Y4708618D01*
X5223525Y4708198D01*
X5223665Y4707918D01*
X5224365Y4706939D01*
X5224645Y4706660D01*
X5224784Y4706380D01*
X5225064Y4706100D01*
X5225624Y4705121D01*
X5226183Y4704561D01*
X5226743Y4703582D01*
X5227372Y4702813D01*
X5227582Y4702603D01*
X5228281Y4701344D01*
X5228701Y4700925D01*
X5228841Y4700645D01*
X5229680Y4699106D01*
X5230100Y4698686D01*
X5230240Y4698407D01*
X5231079Y4696868D01*
X5231359Y4696588D01*
X5231498Y4696309D01*
X5232478Y4694490D01*
X5232757Y4694210D01*
X5233177Y4693231D01*
X5234016Y4691693D01*
X5235975Y4687636D01*
X5236324Y4686727D01*
X5236954Y4685678D01*
X5237094Y4685118D01*
X5237234Y4684699D01*
X5237653Y4683580D01*
X5238352Y4682041D01*
X5238632Y4681062D01*
X5238772Y4680502D01*
X5239611Y4678684D01*
X5240171Y4676446D01*
X5240870Y4674627D01*
X5241010Y4674068D01*
X5241220Y4673159D01*
X5241360Y4672319D01*
X5241500Y4671760D01*
X5241919Y4670641D01*
X5242269Y4669452D01*
X5242409Y4668892D01*
X5242549Y4667913D01*
X5242689Y4667354D01*
X5243038Y4665885D01*
X5243178Y4665326D01*
X5243528Y4664137D01*
X5243808Y4662458D01*
X5243948Y4661899D01*
X5244158Y4660430D01*
X5244297Y4659591D01*
X5244717Y4657912D01*
X5245137Y4655814D01*
X5245207Y4655045D01*
X5244647Y4654065D01*
X5243738Y4653576D01*
X5242619Y4653296D01*
X5234506Y4653156D01*
X5225414Y4653296D01*
X5224994Y4653436D01*
X5222826Y4653646D01*
X5221008Y4653926D01*
X5219889Y4654065D01*
X5218490Y4654205D01*
X5217231Y4654345D01*
X5216112Y4654485D01*
X5215273Y4654625D01*
X5214154Y4654905D01*
X5213384Y4655115D01*
X5212405Y4655394D01*
X5211216Y4655604D01*
X5210377Y4655744D01*
X5209677Y4655884D01*
X5209118Y4656024D01*
X5208419Y4656303D01*
X5206810Y4656793D01*
X5205901Y4657003D01*
X5205062Y4657143D01*
X5204502Y4657283D01*
X5203103Y4657842D01*
X5202474Y4658052D01*
X5201495Y4658332D01*
X5200586Y4658542D01*
X5199467Y4658961D01*
X5198697Y4659311D01*
X5197998Y4659591D01*
X5197088Y4659801D01*
X5195970Y4660220D01*
X5194221Y4660989D01*
X5193662Y4661129D01*
X5192962Y4661409D01*
X5192682Y4661549D01*
X5190864Y4662388D01*
X5189745Y4662808D01*
X5188626Y4663507D01*
X5186877Y4664137D01*
X5186668Y4664346D01*
X5186388Y4664486D01*
X5184849Y4665186D01*
X5183590Y4665885D01*
X5180933Y4667284D01*
X5178834Y4668403D01*
X5178555Y4668683D01*
X5176457Y4669802D01*
X5176177Y4670082D01*
X5175897Y4670221D01*
X5174358Y4671061D01*
X5173939Y4671480D01*
X5172400Y4672319D01*
X5172120Y4672599D01*
X5171841Y4672739D01*
X5171001Y4673299D01*
X5170302Y4673718D01*
X5169742Y4674278D01*
X5168763Y4674837D01*
X5168064Y4675537D01*
X5167784Y4675677D01*
X5165266Y4677635D01*
X5164917Y4677845D01*
X5164847Y4678055D01*
X5164567Y4678194D01*
X5164287Y4678474D01*
X5164007Y4678614D01*
X5163588Y4679034D01*
X5163378Y4679104D01*
X5163238Y4679383D01*
X5162748Y4679733D01*
X5162469Y4680013D01*
X5162189Y4680153D01*
X5160930Y4681412D01*
X5160650Y4681551D01*
X5160301Y4682041D01*
X5159951Y4682391D01*
X5159671Y4682531D01*
X5159182Y4683020D01*
X5159042Y4683300D01*
X5158552Y4683789D01*
X5158272Y4683929D01*
X5157923Y4684279D01*
X5157783Y4684559D01*
X5156244Y4686097D01*
X5156104Y4686377D01*
X5155615Y4686727D01*
X5155405Y4686937D01*
X5155265Y4687217D01*
X5154636Y4687986D01*
X5154006Y4688615D01*
X5153866Y4688895D01*
X5152887Y4689874D01*
X5152747Y4690154D01*
X5152467Y4690434D01*
X5152328Y4690713D01*
X5152048Y4690993D01*
X5151908Y4691273D01*
X5151349Y4691833D01*
X5151209Y4692112D01*
X5150229Y4693371D01*
X5149950Y4693651D01*
X5149390Y4694630D01*
X5148971Y4695050D01*
X5148831Y4695329D01*
X5148271Y4696169D01*
X5148131Y4696449D01*
X5147712Y4696868D01*
X5147572Y4697148D01*
X5146872Y4698407D01*
X5146593Y4698686D01*
X5146453Y4698966D01*
X5146173Y4699246D01*
X5146033Y4699526D01*
X5145194Y4701065D01*
X5144774Y4701484D01*
X5143795Y4703302D01*
X5143235Y4704142D01*
X5143096Y4704701D01*
X5142117Y4706240D01*
X5141697Y4707219D01*
X5140998Y4708478D01*
X5140438Y4709737D01*
X5140088Y4710646D01*
X5139878Y4710856D01*
X5139739Y4711136D01*
X5139039Y4712674D01*
X5137780Y4715332D01*
X5137431Y4716241D01*
X5136521Y4718269D01*
X5135892Y4720018D01*
X5135123Y4721766D01*
X5134983Y4722326D01*
Y4722466D01*
X5134913Y4722536D01*
D02*
G37*
G36*
X5267657Y4654555D02*
X5265419Y4654415D01*
X5260243Y4654275D01*
X5257586Y4654135D01*
X5257166Y4654275D01*
X5256886Y4654415D01*
X5256397Y4654905D01*
X5256537Y4656164D01*
X5256816Y4656863D01*
X5257026Y4658472D01*
X5257376Y4661339D01*
X5257516Y4661899D01*
X5257726Y4662948D01*
X5258285Y4665186D01*
X5258565Y4666584D01*
X5258845Y4668263D01*
X5259124Y4669382D01*
X5259754Y4671410D01*
X5260243Y4673718D01*
X5260663Y4674837D01*
X5261153Y4676446D01*
X5261362Y4677355D01*
X5261502Y4677915D01*
X5261782Y4678614D01*
X5262412Y4680083D01*
X5262551Y4680642D01*
X5262761Y4681412D01*
X5263041Y4682111D01*
X5263251Y4682601D01*
X5263810Y4683859D01*
X5264020Y4684629D01*
X5264160Y4685188D01*
X5265209Y4687496D01*
X5265559Y4688405D01*
X5265769Y4688895D01*
X5266748Y4690993D01*
X5267028Y4691693D01*
X5267587Y4692532D01*
X5268146Y4693931D01*
X5268706Y4694910D01*
X5269126Y4695609D01*
X5269545Y4696588D01*
X5269685Y4696868D01*
X5270385Y4697847D01*
X5270804Y4698826D01*
X5271364Y4699806D01*
X5271644Y4700085D01*
X5272203Y4701344D01*
X5272343Y4701624D01*
X5273322Y4703023D01*
X5274021Y4704282D01*
X5274301Y4704561D01*
X5274441Y4704841D01*
X5275001Y4705820D01*
X5275630Y4706590D01*
X5276259Y4707639D01*
X5276399Y4707918D01*
X5277099Y4708618D01*
X5277658Y4709597D01*
X5278288Y4710366D01*
X5278498Y4710576D01*
X5278637Y4710856D01*
X5279617Y4712115D01*
X5279896Y4712395D01*
X5280036Y4712674D01*
X5280666Y4713444D01*
X5281295Y4714073D01*
X5281435Y4714353D01*
X5281715Y4714633D01*
X5281855Y4714912D01*
X5282834Y4715891D01*
X5282974Y4716171D01*
X5284512Y4717710D01*
X5284582Y4717920D01*
X5284792Y4717990D01*
X5284932Y4718269D01*
X5289058Y4722396D01*
X5289338Y4722536D01*
X5291017Y4724214D01*
X5291296Y4724354D01*
X5291576Y4724634D01*
X5291856Y4724774D01*
X5292555Y4725473D01*
X5292835Y4725613D01*
X5293115Y4725893D01*
X5293395Y4726033D01*
X5293814Y4726592D01*
X5294094Y4726732D01*
X5294374Y4727012D01*
X5294653Y4727152D01*
X5294933Y4727431D01*
X5295143Y4727501D01*
X5295213Y4727711D01*
X5295493Y4727851D01*
X5295772Y4728131D01*
X5296052Y4728271D01*
X5296822Y4728900D01*
X5297311Y4729250D01*
X5297591Y4729530D01*
X5298570Y4730089D01*
X5299130Y4730649D01*
X5299409Y4730788D01*
X5300738Y4731698D01*
X5300948Y4731908D01*
X5301228Y4732047D01*
X5302347Y4732747D01*
X5302626Y4732887D01*
X5303046Y4733306D01*
X5304864Y4734285D01*
X5305144Y4734565D01*
X5305424Y4734705D01*
X5306963Y4735544D01*
X5307802Y4736104D01*
X5309620Y4737083D01*
X5311998Y4738342D01*
X5315215Y4740020D01*
X5315915Y4740300D01*
X5316824Y4740650D01*
X5318573Y4741559D01*
X5319901Y4742049D01*
X5321090Y4742678D01*
X5321790Y4742958D01*
X5322349Y4743098D01*
X5323049Y4743377D01*
X5324867Y4744217D01*
X5325426Y4744357D01*
X5326755Y4744846D01*
X5328504Y4745616D01*
X5329413Y4745825D01*
X5330952Y4746385D01*
X5331721Y4746735D01*
X5333400Y4747154D01*
X5334309Y4747364D01*
X5335428Y4747784D01*
X5337036Y4748273D01*
X5339344Y4748763D01*
X5339904Y4748903D01*
X5341512Y4749392D01*
X5342632Y4749672D01*
X5344940Y4750022D01*
X5345779Y4750162D01*
X5347457Y4750581D01*
X5348856Y4750861D01*
X5349975Y4751001D01*
X5351374Y4751141D01*
X5352633Y4751281D01*
X5355430Y4751700D01*
X5357109Y4751980D01*
X5358368Y4752120D01*
X5360326Y4752260D01*
X5362984Y4752400D01*
X5363753Y4752470D01*
X5364453Y4752050D01*
X5364662Y4751421D01*
X5364522Y4748063D01*
X5364382Y4747644D01*
X5364173Y4746315D01*
X5364033Y4745616D01*
X5363893Y4744776D01*
X5363753Y4744077D01*
X5363543Y4742189D01*
X5363403Y4741629D01*
X5363194Y4740020D01*
X5363054Y4739181D01*
X5362914Y4738622D01*
X5362564Y4737433D01*
X5362284Y4736314D01*
X5362005Y4734355D01*
X5361865Y4733796D01*
X5360886Y4730719D01*
X5360536Y4729110D01*
X5360396Y4728551D01*
X5360116Y4727851D01*
X5359627Y4726662D01*
X5359277Y4725053D01*
X5359137Y4724494D01*
X5358578Y4723095D01*
X5358228Y4722186D01*
X5357948Y4721067D01*
X5357599Y4720158D01*
X5356829Y4718409D01*
X5356689Y4717850D01*
X5356200Y4716521D01*
X5355990Y4716311D01*
X5355570Y4715332D01*
X5354941Y4713583D01*
X5354731Y4713374D01*
X5354591Y4713094D01*
X5354032Y4711835D01*
X5353682Y4710926D01*
X5352773Y4709177D01*
X5352423Y4708268D01*
X5351724Y4707149D01*
X5351374Y4706380D01*
X5350535Y4704841D01*
X5349416Y4702743D01*
X5348996Y4702323D01*
X5348017Y4700505D01*
X5347737Y4700225D01*
X5347597Y4699945D01*
X5346898Y4698686D01*
X5346338Y4698127D01*
X5346198Y4697847D01*
X5345499Y4696588D01*
X5344940Y4696029D01*
X5344800Y4695749D01*
X5343890Y4694420D01*
X5343401Y4693931D01*
X5343261Y4693651D01*
X5342632Y4692882D01*
X5342422Y4692672D01*
X5342282Y4692392D01*
X5342002Y4692112D01*
X5341862Y4691833D01*
X5341582Y4691553D01*
X5341443Y4691273D01*
X5340743Y4690574D01*
X5340603Y4690294D01*
X5340324Y4690014D01*
X5340184Y4689734D01*
X5339204Y4688755D01*
X5339065Y4688475D01*
X5337806Y4687217D01*
X5337666Y4686937D01*
X5337176Y4686447D01*
X5336896Y4686307D01*
X5336547Y4685818D01*
X5333120Y4682391D01*
X5332840Y4682251D01*
X5332490Y4681901D01*
X5332350Y4681621D01*
X5332141Y4681412D01*
X5331861Y4681272D01*
X5331581Y4680992D01*
X5331301Y4680852D01*
X5330952Y4680363D01*
X5330742Y4680153D01*
X5330462Y4680013D01*
X5330182Y4679733D01*
X5329903Y4679593D01*
X5328923Y4678614D01*
X5328644Y4678474D01*
X5328364Y4678194D01*
X5328084Y4678055D01*
X5327245Y4677215D01*
X5326965Y4677075D01*
X5325706Y4676096D01*
X5324727Y4675397D01*
X5324447Y4675257D01*
X5323888Y4674698D01*
X5323608Y4674558D01*
X5321650Y4673159D01*
X5320671Y4672599D01*
X5320251Y4672180D01*
X5319971Y4672040D01*
X5318712Y4671340D01*
X5318433Y4671061D01*
X5318153Y4670921D01*
X5316334Y4669942D01*
X5316055Y4669662D01*
X5315775Y4669522D01*
X5313677Y4668403D01*
X5313397Y4668123D01*
X5312698Y4667843D01*
X5311159Y4667004D01*
X5309620Y4666305D01*
X5308641Y4665745D01*
X5307102Y4665046D01*
X5306403Y4664766D01*
X5306123Y4664626D01*
X5305284Y4664067D01*
X5303116Y4663297D01*
X5302906Y4663088D01*
X5301647Y4662528D01*
X5301088Y4662388D01*
X5300179Y4662038D01*
X5298990Y4661409D01*
X5298290Y4661129D01*
X5297381Y4660919D01*
X5296262Y4660500D01*
X5295493Y4660150D01*
X5294514Y4659870D01*
X5293395Y4659591D01*
X5291646Y4658961D01*
X5290737Y4658611D01*
X5288429Y4658122D01*
X5287869Y4657982D01*
X5287170Y4657702D01*
X5285981Y4657353D01*
X5284862Y4657073D01*
X5283393Y4656863D01*
X5282694Y4656723D01*
X5282134Y4656583D01*
X5281365Y4656373D01*
X5279686Y4655954D01*
X5278078Y4655744D01*
X5276819Y4655604D01*
X5275700Y4655464D01*
X5273882Y4655185D01*
X5273182Y4655045D01*
X5271294Y4654835D01*
X5270734Y4654695D01*
X5267797Y4654555D01*
X5267657D01*
D02*
G37*
D37*
X5015000Y4504981D02*
Y4445000D01*
Y4474990D01*
X4975013D01*
Y4504981D01*
Y4445000D01*
X4915032Y4494984D02*
X4925029Y4504981D01*
X4945023D01*
X4955019Y4494984D01*
Y4484987D01*
X4945023Y4474990D01*
X4925029D01*
X4915032Y4464993D01*
Y4454997D01*
X4925029Y4445000D01*
X4945023D01*
X4955019Y4454997D01*
X4895039Y4445000D02*
Y4504981D01*
X4875045Y4484987D01*
X4855052Y4504981D01*
Y4445000D01*
X4835058Y4474990D02*
X4795071D01*
X4775078Y4504981D02*
X4735091D01*
X4755084D01*
Y4445000D01*
X4715097D02*
Y4484987D01*
X4695104Y4504981D01*
X4675110Y4484987D01*
Y4445000D01*
Y4474990D01*
X4715097D01*
X4655116Y4445000D02*
Y4504981D01*
X4635123Y4484987D01*
X4615129Y4504981D01*
Y4445000D01*
X4595136D02*
Y4504981D01*
X4565145D01*
X4555149Y4494984D01*
Y4474990D01*
X4565145Y4464993D01*
X4595136D01*
X4495168Y4504981D02*
X4535155D01*
Y4445000D01*
X4495168D01*
X4535155Y4474990D02*
X4515162D01*
X4475175Y4445000D02*
Y4504981D01*
X4445184D01*
X4435188Y4494984D01*
Y4474990D01*
X4445184Y4464993D01*
X4475175D01*
X4455181D02*
X4435188Y4445000D01*
X4415194Y4504981D02*
X4395200D01*
X4405197D01*
Y4445000D01*
X4415194D01*
X4395200D01*
X4365210D02*
Y4504981D01*
X4325223Y4445000D01*
Y4504981D01*
X4265243Y4494984D02*
X4275239Y4504981D01*
X4295233D01*
X4305230Y4494984D01*
Y4454997D01*
X4295233Y4445000D01*
X4275239D01*
X4265243Y4454997D01*
Y4474990D01*
X4285236D01*
X4185268Y4445000D02*
Y4504981D01*
X4165275Y4484987D01*
X4145281Y4504981D01*
Y4445000D01*
X4095298Y4504981D02*
X4115291D01*
X4125288Y4494984D01*
Y4454997D01*
X4115291Y4445000D01*
X4095298D01*
X4085301Y4454997D01*
Y4494984D01*
X4095298Y4504981D01*
X4065307D02*
Y4445000D01*
X4035317D01*
X4025320Y4454997D01*
Y4494984D01*
X4035317Y4504981D01*
X4065307D01*
X4005327D02*
Y4454997D01*
X3995330Y4445000D01*
X3975336D01*
X3965340Y4454997D01*
Y4504981D01*
X3945346D02*
Y4445000D01*
X3905359D01*
X3845378Y4504981D02*
X3885365D01*
Y4445000D01*
X3845378D01*
X3885365Y4474990D02*
X3865372D01*
D41*
X5015315Y4549685D02*
Y4649023D01*
X4965646D01*
X4949090Y4632467D01*
Y4599354D01*
X4965646Y4582798D01*
X5015315D01*
X4849752Y4649023D02*
X4915977D01*
Y4549685D01*
X4849752D01*
X4915977Y4599354D02*
X4882864D01*
X4816639Y4549685D02*
Y4615910D01*
X4783526Y4649023D01*
X4750414Y4615910D01*
Y4549685D01*
Y4599354D01*
X4816639D01*
X4651076Y4632467D02*
X4667632Y4649023D01*
X4700745D01*
X4717301Y4632467D01*
Y4566241D01*
X4700745Y4549685D01*
X4667632D01*
X4651076Y4566241D01*
X4617963Y4649023D02*
Y4549685D01*
Y4599354D01*
X4551738D01*
Y4649023D01*
Y4549685D01*
X4452400Y4649023D02*
X4518625D01*
Y4549685D01*
X4452400D01*
X4518625Y4599354D02*
X4485512D01*
X4353062Y4632467D02*
X4369618Y4649023D01*
X4402731D01*
X4419287Y4632467D01*
Y4615910D01*
X4402731Y4599354D01*
X4369618D01*
X4353062Y4582798D01*
Y4566241D01*
X4369618Y4549685D01*
X4402731D01*
X4419287Y4566241D01*
X4253724Y4632467D02*
X4270280Y4649023D01*
X4303393D01*
X4319949Y4632467D01*
Y4615910D01*
X4303393Y4599354D01*
X4270280D01*
X4253724Y4582798D01*
Y4566241D01*
X4270280Y4549685D01*
X4303393D01*
X4319949Y4566241D01*
%TF.MD5,2e6eb6bdc27e3b4d66d3411a85d8a25c*%
M02*
